<?xml version="1.0" encoding="UTF-8"?>
<svg version="1.1" xmlns="http://www.w3.org/2000/svg" width="900" height="900">
<path d="M0 0 C7.26 0 14.52 0 22 0 C22 0.66 22 1.32 22 2 C30.58 2 39.16 2 48 2 C48 2.66 48 3.32 48 4 C52.62 4 57.24 4 62 4 C62 4.66 62 5.32 62 6 C65.96 6 69.92 6 74 6 C74 6.66 74 7.32 74 8 C77.3 8 80.6 8 84 8 C84 8.66 84 9.32 84 10 C86.64 10 89.28 10 92 10 C92 10.66 92 11.32 92 12 C94.64 12 97.28 12 100 12 C100 12.66 100 13.32 100 14 C102.64 14 105.28 14 108 14 C108 14.66 108 15.32 108 16 C109.98 16 111.96 16 114 16 C114 16.66 114 17.32 114 18 C115.98 18 117.96 18 120 18 C120 18.66 120 19.32 120 20 C121.98 20 123.96 20 126 20 C126 20.66 126 21.32 126 22 C127.98 22 129.96 22 132 22 C132 22.66 132 23.32 132 24 C133.32 24 134.64 24 136 24 C136 24.66 136 25.32 136 26 C137.98 26 139.96 26 142 26 C142 26.66 142 27.32 142 28 C143.32 28 144.64 28 146 28 C146 28.66 146 29.32 146 30 C147.32 30 148.64 30 150 30 C150 30.66 150 31.32 150 32 C151.32 32 152.64 32 154 32 C154 32.66 154 33.32 154 34 C155.98 34 157.96 34 160 34 C160 34.66 160 35.32 160 36 C161.32 36 162.64 36 164 36 C164 36.66 164 37.32 164 38 C165.32 38 166.64 38 168 38 C168 38.66 168 39.32 168 40 C168.66 40 169.32 40 170 40 C170 40.66 170 41.32 170 42 C171.32 42 172.64 42 174 42 C174 42.66 174 43.32 174 44 C175.32 44 176.64 44 178 44 C178 44.66 178 45.32 178 46 C179.32 46 180.64 46 182 46 C182 46.66 182 47.32 182 48 C183.32 48 184.64 48 186 48 C186 48.66 186 49.32 186 50 C186.66 50 187.32 50 188 50 C188 50.66 188 51.32 188 52 C189.32 52 190.64 52 192 52 C192 52.66 192 53.32 192 54 C192.66 54 193.32 54 194 54 C194 54.66 194 55.32 194 56 C195.32 56 196.64 56 198 56 C198 56.66 198 57.32 198 58 C198.66 58 199.32 58 200 58 C200 58.66 200 59.32 200 60 C201.32 60 202.64 60 204 60 C204 60.66 204 61.32 204 62 C204.66 62 205.32 62 206 62 C206 62.66 206 63.32 206 64 C207.32 64 208.64 64 210 64 C210 64.66 210 65.32 210 66 C210.66 66 211.32 66 212 66 C212 66.66 212 67.32 212 68 C212.66 68 213.32 68 214 68 C214 68.66 214 69.32 214 70 C215.32 70 216.64 70 218 70 C218 70.66 218 71.32 218 72 C218.66 72 219.32 72 220 72 C220 72.66 220 73.32 220 74 C220.66 74 221.32 74 222 74 C222 74.66 222 75.32 222 76 C223.32 76 224.64 76 226 76 C226 76.66 226 77.32 226 78 C226.66 78 227.32 78 228 78 C228 78.66 228 79.32 228 80 C228.66 80 229.32 80 230 80 C230 80.66 230 81.32 230 82 C230.66 82 231.32 82 232 82 C232 82.66 232 83.32 232 84 C232.66 84 233.32 84 234 84 C234 84.66 234 85.32 234 86 C234.66 86 235.32 86 236 86 C236 86.66 236 87.32 236 88 C237.32 88 238.64 88 240 88 C240 88.66 240 89.32 240 90 C240.66 90 241.32 90 242 90 C242 90.66 242 91.32 242 92 C242.66 92 243.32 92 244 92 C244 92.66 244 93.32 244 94 C244.66 94 245.32 94 246 94 C246 94.66 246 95.32 246 96 C246.66 96 247.32 96 248 96 C248 96.66 248 97.32 248 98 C248.66 98 249.32 98 250 98 C250 98.66 250 99.32 250 100 C250.66 100 251.32 100 252 100 C252 100.66 252 101.32 252 102 C252.66 102 253.32 102 254 102 C254 102.66 254 103.32 254 104 C254.66 104 255.32 104 256 104 C256 104.66 256 105.32 256 106 C256.66 106 257.32 106 258 106 C258 106.66 258 107.32 258 108 C259.98 108 261.96 108 264 108 C264 107.34 264 106.68 264 106 C264.66 106 265.32 106 266 106 C266 105.34 266 104.68 266 104 C266.66 104 267.32 104 268 104 C268 103.34 268 102.68 268 102 C268.66 102 269.32 102 270 102 C270 101.34 270 100.68 270 100 C270.66 100 271.32 100 272 100 C272 99.34 272 98.68 272 98 C272.66 98 273.32 98 274 98 C274 97.34 274 96.68 274 96 C274.66 96 275.32 96 276 96 C276 95.34 276 94.68 276 94 C276.66 94 277.32 94 278 94 C278 93.34 278 92.68 278 92 C278.66 92 279.32 92 280 92 C280 91.34 280 90.68 280 90 C280.66 90 281.32 90 282 90 C282 89.34 282 88.68 282 88 C282.66 88 283.32 88 284 88 C284 87.34 284 86.68 284 86 C284.66 86 285.32 86 286 86 C286 85.34 286 84.68 286 84 C287.32 84 288.64 84 290 84 C290 83.34 290 82.68 290 82 C290.66 82 291.32 82 292 82 C292 81.34 292 80.68 292 80 C292.66 80 293.32 80 294 80 C294 79.34 294 78.68 294 78 C294.66 78 295.32 78 296 78 C296 77.34 296 76.68 296 76 C297.32 76 298.64 76 300 76 C300 75.34 300 74.68 300 74 C300.66 74 301.32 74 302 74 C302 73.34 302 72.68 302 72 C302.66 72 303.32 72 304 72 C304 71.34 304 70.68 304 70 C305.32 70 306.64 70 308 70 C308 69.34 308 68.68 308 68 C308.66 68 309.32 68 310 68 C310 67.34 310 66.68 310 66 C310.66 66 311.32 66 312 66 C312 65.34 312 64.68 312 64 C313.32 64 314.64 64 316 64 C316 63.34 316 62.68 316 62 C316.66 62 317.32 62 318 62 C318 61.34 318 60.68 318 60 C319.32 60 320.64 60 322 60 C322 59.34 322 58.68 322 58 C322.66 58 323.32 58 324 58 C324 57.34 324 56.68 324 56 C325.32 56 326.64 56 328 56 C328 55.34 328 54.68 328 54 C328.66 54 329.32 54 330 54 C330 53.34 330 52.68 330 52 C331.32 52 332.64 52 334 52 C334 51.34 334 50.68 334 50 C335.32 50 336.64 50 338 50 C338 49.34 338 48.68 338 48 C339.32 48 340.64 48 342 48 C342 47.34 342 46.68 342 46 C342.66 46 343.32 46 344 46 C344 45.34 344 44.68 344 44 C345.32 44 346.64 44 348 44 C348 43.34 348 42.68 348 42 C349.32 42 350.64 42 352 42 C352 41.34 352 40.68 352 40 C353.32 40 354.64 40 356 40 C356 39.34 356 38.68 356 38 C357.32 38 358.64 38 360 38 C360 37.34 360 36.68 360 36 C361.32 36 362.64 36 364 36 C364 35.34 364 34.68 364 34 C365.32 34 366.64 34 368 34 C368 33.34 368 32.68 368 32 C369.98 32 371.96 32 374 32 C374 31.34 374 30.68 374 30 C375.32 30 376.64 30 378 30 C378 29.34 378 28.68 378 28 C379.32 28 380.64 28 382 28 C382 27.34 382 26.68 382 26 C383.98 26 385.96 26 388 26 C388 25.34 388 24.68 388 24 C389.98 24 391.96 24 394 24 C394 23.34 394 22.68 394 22 C395.32 22 396.64 22 398 22 C398 21.34 398 20.68 398 20 C399.98 20 401.96 20 404 20 C404 19.34 404 18.68 404 18 C405.98 18 407.96 18 410 18 C410 17.34 410 16.68 410 16 C412.64 16 415.28 16 418 16 C418 15.34 418 14.68 418 14 C419.98 14 421.96 14 424 14 C424 13.34 424 12.68 424 12 C426.64 12 429.28 12 432 12 C432 11.34 432 10.68 432 10 C435.3 10 438.6 10 442 10 C442 9.34 442 8.68 442 8 C444.64 8 447.28 8 450 8 C450 7.34 450 6.68 450 6 C453.96 6 457.92 6 462 6 C462 5.34 462 4.68 462 4 C467.28 4 472.56 4 478 4 C478 3.34 478 2.68 478 2 C486.58 2 495.16 2 504 2 C504 1.34 504 0.68 504 0 C507.31248187 -0.02888146 510.62493167 -0.04675799 513.9375 -0.0625 C514.88302734 -0.07087891 515.82855469 -0.07925781 516.80273438 -0.08789062 C518.15141602 -0.09272461 518.15141602 -0.09272461 519.52734375 -0.09765625 C520.77632446 -0.10551147 520.77632446 -0.10551147 522.05053711 -0.11352539 C524 0 524 0 525 1 C527.71323216 1.16388651 530.42348098 1.25468868 533.140625 1.328125 C537.09372911 2.25699646 538.47597385 3.84503282 541 7 C541.44003142 9.78837973 541.59085432 11.94052053 541.48828125 14.70703125 C541.48120651 15.43242599 541.47413177 16.15782074 541.46684265 16.90519714 C541.43898406 19.20870703 541.37627191 21.50973251 541.3125 23.8125 C541.28740563 25.37952203 541.26459444 26.9465824 541.24414062 28.51367188 C541.18918681 32.34339656 541.10298226 36.17127797 541 40 C542.1552417 39.97381592 543.3104834 39.94763184 544.50073242 39.9206543 C548.79627026 39.82999652 553.09172394 39.77269449 557.38793945 39.7253418 C559.24550609 39.70023298 561.10297427 39.66613866 562.96020508 39.62280273 C565.63387358 39.56198876 568.30623365 39.5337548 570.98046875 39.51171875 C572.2213752 39.47300911 572.2213752 39.47300911 573.48735046 39.43351746 C574.26778214 39.4331398 575.04821381 39.43276215 575.85229492 39.43237305 C576.87488655 39.41571846 576.87488655 39.41571846 577.9181366 39.39872742 C581.30825365 40.37784278 582.79237464 42.30061602 585 45 C585.49070415 47.78294128 585.6711138 49.95243955 585.62361908 52.7283802 C585.6336211 53.89053345 585.6336211 53.89053345 585.64382517 55.07616454 C585.66011673 57.68215515 585.64065755 60.28665531 585.62145996 62.89260864 C585.62578731 64.77570089 585.6323018 66.65878918 585.64082003 68.54186714 C585.65785621 73.72406497 585.64359916 78.90578161 585.62430525 84.08795428 C585.60891193 89.67354401 585.62227133 95.25907348 585.63204956 100.84466553 C585.64659548 111.78925336 585.63432293 122.73365605 585.61293632 133.67822637 C585.58896005 146.41403736 585.59063857 159.14980562 585.59324223 171.88563417 C585.5970462 195.28938803 585.57408267 218.69302908 585.53889475 242.09674703 C585.50689308 263.47255858 585.49485233 284.84828679 585.50097656 306.22412109 C585.50136341 307.59690913 585.50174986 308.96969717 585.50213593 310.3424852 C585.50232728 311.02115841 585.50251862 311.69983162 585.50271577 312.39907068 C585.50367007 315.81525226 585.50458444 319.23143384 585.50545502 322.64761543 C585.50571571 323.65850496 585.50571571 323.65850496 585.50598167 324.68981649 C585.51033406 342.54056887 585.50025159 360.39131207 585.48561716 378.24205863 C585.48457768 379.51043635 585.48353819 380.77881406 585.4824672 382.08562746 C585.48037625 384.63335662 585.47826528 387.18108575 585.47613403 389.72881488 C585.46922755 398.61464493 585.46857091 407.50046315 585.47001648 416.38629532 C585.47145345 427.20772573 585.46181531 438.02908115 585.43807012 448.85048665 C585.4261782 454.37585094 585.41910614 459.90111046 585.42490768 465.42648697 C585.43005533 470.4781856 585.42147745 475.52966232 585.40163308 480.58132289 C585.39686831 482.41499053 585.39722484 484.2486796 585.40304345 486.08234419 C585.41015805 488.5629322 585.39904843 491.04277124 585.38311005 493.52330208 C585.38956185 494.24557332 585.39601365 494.96784456 585.40266097 495.71200281 C585.36850329 498.5180947 585.29129248 500.53865133 583.77243108 502.94422215 C581.46553876 504.31836067 579.94184174 504.37274275 577.25799274 504.36914349 C576.27666884 504.37511663 575.29534493 504.38108978 574.28428394 504.38724393 C573.20355694 504.3785054 572.12282994 504.36976688 571.00935364 504.36076355 C569.8633957 504.36332682 568.71743777 504.3658901 567.53675383 504.36853105 C564.35095558 504.37262627 561.1655212 504.36321983 557.97976601 504.34819686 C554.5462488 504.3352657 551.11274918 504.33962388 547.67921448 504.34190369 C541.72875236 504.34347828 535.77838877 504.33404974 529.82795143 504.31719017 C521.2245886 504.29282982 512.62127351 504.28499794 504.01787993 504.2812262 C490.06015139 504.27465705 476.10247539 504.25468334 462.14477539 504.22631836 C448.58455671 504.19878977 435.0243523 504.17755032 421.46411133 504.16479492 C420.62854074 504.16400675 419.79297015 504.16321858 418.93207923 504.16240653 C414.74035128 504.15849147 410.54862322 504.15470033 406.35689509 504.15097082 C371.57122594 504.11986048 336.78561781 504.06701209 302 504 C302 504.66 302 505.32 302 506 C300.68 506 299.36 506 298 506 C298 507.32 298 508.64 298 510 C297.34 510 296.68 510 296 510 C296 511.32 296 512.64 296 514 C295.34 514 294.68 514 294 514 C294 514.66 294 515.32 294 516 C293.34 516 292.68 516 292 516 C292 516.66 292 517.32 292 518 C291.34 518 290.68 518 290 518 C290 518.66 290 519.32 290 520 C289.34 520 288.68 520 288 520 C288 520.66 288 521.32 288 522 C286.68 522 285.36 522 284 522 C284 522.66 284 523.32 284 524 C270.8 524 257.6 524 244 524 C244 523.34 244 522.68 244 522 C242.68 522 241.36 522 240 522 C240 521.34 240 520.68 240 520 C239.34 520 238.68 520 238 520 C238 519.34 238 518.68 238 518 C237.34 518 236.68 518 236 518 C236 517.34 236 516.68 236 516 C235.34 516 234.68 516 234 516 C234 515.34 234 514.68 234 514 C233.34 514 232.68 514 232 514 C232 513.34 232 512.68 232 512 C231.34 512 230.68 512 230 512 C230 510.68 230 509.36 230 508 C229.34 508 228.68 508 228 508 C228 506.68 228 505.36 228 504 C135.6 504 43.2 504 -52 504 C-52 503.34 -52 502.68 -52 502 C-52.66 502 -53.32 502 -54 502 C-54 501.34 -54 500.68 -54 500 C-54.66 500 -55.32 500 -56 500 C-56 348.2 -56 196.4 -56 40 C-44.12 40 -32.24 40 -20 40 C-20 39.34 -20 38.68 -20 38 C-19.34 38 -18.68 38 -18 38 C-18 37.34 -18 36.68 -18 36 C-17.34 36 -16.68 36 -16 36 C-16 35.34 -16 34.68 -16 34 C-15.34 34 -14.68 34 -14 34 C-14 33.34 -14 32.68 -14 32 C-13.34 32 -12.68 32 -12 32 C-12 22.1 -12 12.2 -12 2 C-8.04 2 -4.08 2 0 2 C0 1.34 0 0.68 0 0 Z M28 32 C28 32.66 28 33.32 28 34 C27.34 34 26.68 34 26 34 C26 34.66 26 35.32 26 36 C25.34 36 24.68 36 24 36 C24 36.66 24 37.32 24 38 C23.34 38 22.68 38 22 38 C22 38.66 22 39.32 22 40 C21.34 40 20.68 40 20 40 C20 40.66 20 41.32 20 42 C19.34 42 18.68 42 18 42 C18 153.54 18 265.08 18 380 C25.92 380 33.84 380 42 380 C42 380.66 42 381.32 42 382 C48.6 382 55.2 382 62 382 C62 382.66 62 383.32 62 384 C66.62 384 71.24 384 76 384 C76 384.66 76 385.32 76 386 C79.96 386 83.92 386 88 386 C88 386.66 88 387.32 88 388 C91.3 388 94.6 388 98 388 C98 388.66 98 389.32 98 390 C101.3 390 104.6 390 108 390 C108 390.66 108 391.32 108 392 C110.64 392 113.28 392 116 392 C116 392.66 116 393.32 116 394 C118.64 394 121.28 394 124 394 C124 394.66 124 395.32 124 396 C125.98 396 127.96 396 130 396 C130 396.66 130 397.32 130 398 C132.64 398 135.28 398 138 398 C138 398.66 138 399.32 138 400 C139.98 400 141.96 400 144 400 C144 400.66 144 401.32 144 402 C145.98 402 147.96 402 150 402 C150 402.66 150 403.32 150 404 C151.98 404 153.96 404 156 404 C156 404.66 156 405.32 156 406 C157.98 406 159.96 406 162 406 C162 406.66 162 407.32 162 408 C163.32 408 164.64 408 166 408 C166 408.66 166 409.32 166 410 C167.98 410 169.96 410 172 410 C172 410.66 172 411.32 172 412 C173.32 412 174.64 412 176 412 C176 412.66 176 413.32 176 414 C177.32 414 178.64 414 180 414 C180 414.66 180 415.32 180 416 C181.32 416 182.64 416 184 416 C184 416.66 184 417.32 184 418 C185.32 418 186.64 418 188 418 C188 418.66 188 419.32 188 420 C189.98 420 191.96 420 194 420 C194 420.66 194 421.32 194 422 C194.66 422 195.32 422 196 422 C196 422.66 196 423.32 196 424 C197.32 424 198.64 424 200 424 C200 424.66 200 425.32 200 426 C201.32 426 202.64 426 204 426 C204 426.66 204 427.32 204 428 C205.32 428 206.64 428 208 428 C208 428.66 208 429.32 208 430 C209.32 430 210.64 430 212 430 C212 430.66 212 431.32 212 432 C212.66 432 213.32 432 214 432 C214 432.66 214 433.32 214 434 C215.32 434 216.64 434 218 434 C218 434.66 218 435.32 218 436 C219.32 436 220.64 436 222 436 C222 436.66 222 437.32 222 438 C222.66 438 223.32 438 224 438 C224 438.66 224 439.32 224 440 C225.32 440 226.64 440 228 440 C228 440.66 228 441.32 228 442 C228.66 442 229.32 442 230 442 C230 442.66 230 443.32 230 444 C231.32 444 232.64 444 234 444 C234 444.66 234 445.32 234 446 C234.66 446 235.32 446 236 446 C236 446.66 236 447.32 236 448 C236.66 448 237.32 448 238 448 C238 447.34 238 446.68 238 446 C238.66 446 239.32 446 240 446 C240 445.34 240 444.68 240 444 C240.66 444 241.32 444 242 444 C242 443.34 242 442.68 242 442 C242.66 442 243.32 442 244 442 C244 441.34 244 440.68 244 440 C244.66 440 245.32 440 246 440 C246 439.34 246 438.68 246 438 C246.66 438 247.32 438 248 438 C248 339.66 248 241.32 248 140 C247.34 140 246.68 140 246 140 C246 138.02 246 136.04 246 134 C245.34 134 244.68 134 244 134 C244 133.34 244 132.68 244 132 C243.34 132 242.68 132 242 132 C242 131.34 242 130.68 242 130 C241.34 130 240.68 130 240 130 C240 129.34 240 128.68 240 128 C239.34 128 238.68 128 238 128 C238 127.34 238 126.68 238 126 C237.34 126 236.68 126 236 126 C236 125.34 236 124.68 236 124 C235.34 124 234.68 124 234 124 C234 123.34 234 122.68 234 122 C233.34 122 232.68 122 232 122 C232 121.34 232 120.68 232 120 C231.34 120 230.68 120 230 120 C230 119.34 230 118.68 230 118 C229.34 118 228.68 118 228 118 C228 117.34 228 116.68 228 116 C227.34 116 226.68 116 226 116 C226 115.34 226 114.68 226 114 C225.34 114 224.68 114 224 114 C224 113.34 224 112.68 224 112 C223.34 112 222.68 112 222 112 C222 111.34 222 110.68 222 110 C221.34 110 220.68 110 220 110 C220 109.34 220 108.68 220 108 C218.68 108 217.36 108 216 108 C216 107.34 216 106.68 216 106 C215.34 106 214.68 106 214 106 C214 105.34 214 104.68 214 104 C213.34 104 212.68 104 212 104 C212 103.34 212 102.68 212 102 C211.34 102 210.68 102 210 102 C210 101.34 210 100.68 210 100 C208.68 100 207.36 100 206 100 C206 99.34 206 98.68 206 98 C205.34 98 204.68 98 204 98 C204 97.34 204 96.68 204 96 C203.34 96 202.68 96 202 96 C202 95.34 202 94.68 202 94 C200.68 94 199.36 94 198 94 C198 93.34 198 92.68 198 92 C197.34 92 196.68 92 196 92 C196 91.34 196 90.68 196 90 C194.68 90 193.36 90 192 90 C192 89.34 192 88.68 192 88 C191.34 88 190.68 88 190 88 C190 87.34 190 86.68 190 86 C188.68 86 187.36 86 186 86 C186 85.34 186 84.68 186 84 C185.34 84 184.68 84 184 84 C184 83.34 184 82.68 184 82 C182.68 82 181.36 82 180 82 C180 81.34 180 80.68 180 80 C178.68 80 177.36 80 176 80 C176 79.34 176 78.68 176 78 C175.34 78 174.68 78 174 78 C174 77.34 174 76.68 174 76 C172.68 76 171.36 76 170 76 C170 75.34 170 74.68 170 74 C168.68 74 167.36 74 166 74 C166 73.34 166 72.68 166 72 C164.68 72 163.36 72 162 72 C162 71.34 162 70.68 162 70 C160.68 70 159.36 70 158 70 C158 69.34 158 68.68 158 68 C156.68 68 155.36 68 154 68 C154 67.34 154 66.68 154 66 C152.68 66 151.36 66 150 66 C150 65.34 150 64.68 150 64 C148.68 64 147.36 64 146 64 C146 63.34 146 62.68 146 62 C144.68 62 143.36 62 142 62 C142 61.34 142 60.68 142 60 C140.02 60 138.04 60 136 60 C136 59.34 136 58.68 136 58 C134.68 58 133.36 58 132 58 C132 57.34 132 56.68 132 56 C130.02 56 128.04 56 126 56 C126 55.34 126 54.68 126 54 C124.02 54 122.04 54 120 54 C120 53.34 120 52.68 120 52 C118.68 52 117.36 52 116 52 C116 51.34 116 50.68 116 50 C114.02 50 112.04 50 110 50 C110 49.34 110 48.68 110 48 C108.02 48 106.04 48 104 48 C104 47.34 104 46.68 104 46 C102.02 46 100.04 46 98 46 C98 45.34 98 44.68 98 44 C95.36 44 92.72 44 90 44 C90 43.34 90 42.68 90 42 C87.36 42 84.72 42 82 42 C82 41.34 82 40.68 82 40 C79.36 40 76.72 40 74 40 C74 39.34 74 38.68 74 38 C70.7 38 67.4 38 64 38 C64 37.34 64 36.68 64 36 C60.04 36 56.08 36 52 36 C52 35.34 52 34.68 52 34 C46.72 34 41.44 34 36 34 C36 33.34 36 32.68 36 32 C33.36 32 30.72 32 28 32 Z M489 32 C488.67 32.33 488.34 32.66 488 33 C484.7901307 33.26998901 481.58769141 33.44611437 478.37109375 33.60546875 C474.89055723 33.4970552 474.89055723 33.4970552 472 35 C469.68182911 35.32097751 467.36220643 35.51220956 465.03125 35.71875 C463.00819407 35.79065837 463.00819407 35.79065837 462 37 C460.31816052 37.23287008 458.6287584 37.41264166 456.9375 37.5625 C456.01839844 37.64628906 455.09929687 37.73007813 454.15234375 37.81640625 C453.44207031 37.87699219 452.73179687 37.93757813 452 38 C452 38.66 452 39.32 452 40 C449.36 40 446.72 40 444 40 C444 40.66 444 41.32 444 42 C441.36 42 438.72 42 436 42 C436 42.66 436 43.32 436 44 C433.36 44 430.72 44 428 44 C428 44.66 428 45.32 428 46 C426.02 46 424.04 46 422 46 C422 46.66 422 47.32 422 48 C420.02 48 418.04 48 416 48 C416 48.66 416 49.32 416 50 C414.02 50 412.04 50 410 50 C410 50.66 410 51.32 410 52 C408.02 52 406.04 52 404 52 C404 52.66 404 53.32 404 54 C402.68 54 401.36 54 400 54 C400 54.66 400 55.32 400 56 C398.02 56 396.04 56 394 56 C394 56.66 394 57.32 394 58 C392.68 58 391.36 58 390 58 C390 58.66 390 59.32 390 60 C388.68 60 387.36 60 386 60 C386 60.66 386 61.32 386 62 C384.02 62 382.04 62 380 62 C380 62.66 380 63.32 380 64 C378.68 64 377.36 64 376 64 C376 64.66 376 65.32 376 66 C374.68 66 373.36 66 372 66 C372 66.66 372 67.32 372 68 C370.68 68 369.36 68 368 68 C368 68.66 368 69.32 368 70 C366.68 70 365.36 70 364 70 C364 70.66 364 71.32 364 72 C363.34 72 362.68 72 362 72 C362 72.66 362 73.32 362 74 C360.68 74 359.36 74 358 74 C358 74.66 358 75.32 358 76 C356.68 76 355.36 76 354 76 C354 76.66 354 77.32 354 78 C352.68 78 351.36 78 350 78 C350 78.66 350 79.32 350 80 C349.34 80 348.68 80 348 80 C348 80.66 348 81.32 348 82 C346.68 82 345.36 82 344 82 C344 82.66 344 83.32 344 84 C343.34 84 342.68 84 342 84 C342 84.66 342 85.32 342 86 C340.68 86 339.36 86 338 86 C338 86.66 338 87.32 338 88 C337.34 88 336.68 88 336 88 C336 88.66 336 89.32 336 90 C334.68 90 333.36 90 332 90 C332 90.66 332 91.32 332 92 C331.34 92 330.68 92 330 92 C330 92.66 330 93.32 330 94 C328.68 94 327.36 94 326 94 C326 94.66 326 95.32 326 96 C325.34 96 324.68 96 324 96 C324 96.66 324 97.32 324 98 C323.34 98 322.68 98 322 98 C322 98.66 322 99.32 322 100 C320.68 100 319.36 100 318 100 C318 100.66 318 101.32 318 102 C317.34 102 316.68 102 316 102 C316 102.66 316 103.32 316 104 C315.34 104 314.68 104 314 104 C314 104.66 314 105.32 314 106 C313.34 106 312.68 106 312 106 C312 106.66 312 107.32 312 108 C311.34 108 310.68 108 310 108 C310 108.66 310 109.32 310 110 C308.68 110 307.36 110 306 110 C306 110.66 306 111.32 306 112 C305.34 112 304.68 112 304 112 C304 112.66 304 113.32 304 114 C303.34 114 302.68 114 302 114 C302 114.66 302 115.32 302 116 C301.34 116 300.68 116 300 116 C300 116.66 300 117.32 300 118 C299.34 118 298.68 118 298 118 C298 118.66 298 119.32 298 120 C297.34 120 296.68 120 296 120 C296 120.66 296 121.32 296 122 C295.34 122 294.68 122 294 122 C294 122.66 294 123.32 294 124 C293.34 124 292.68 124 292 124 C292 124.66 292 125.32 292 126 C291.34 126 290.68 126 290 126 C290 126.66 290 127.32 290 128 C289.34 128 288.68 128 288 128 C288 128.66 288 129.32 288 130 C287.34 130 286.68 130 286 130 C286 130.66 286 131.32 286 132 C285.34 132 284.68 132 284 132 C284 132.66 284 133.32 284 134 C283.34 134 282.68 134 282 134 C282 134.66 282 135.32 282 136 C281.34 136 280.68 136 280 136 C280 136.66 280 137.32 280 138 C279.34 138 278.68 138 278 138 C278 241.62 278 345.24 278 452 C278.66 452 279.32 452 280 452 C280 451.34 280 450.68 280 450 C280.66 450 281.32 450 282 450 C282 449.34 282 448.68 282 448 C283.32 448 284.64 448 286 448 C286 447.34 286 446.68 286 446 C286.66 446 287.32 446 288 446 C288 445.34 288 444.68 288 444 C289.32 444 290.64 444 292 444 C292 443.34 292 442.68 292 442 C292.66 442 293.32 442 294 442 C294 441.34 294 440.68 294 440 C295.32 440 296.64 440 298 440 C298 439.34 298 438.68 298 438 C298.66 438 299.32 438 300 438 C300 437.34 300 436.68 300 436 C301.32 436 302.64 436 304 436 C304 435.34 304 434.68 304 434 C305.32 434 306.64 434 308 434 C308 433.34 308 432.68 308 432 C309.32 432 310.64 432 312 432 C312 431.34 312 430.68 312 430 C312.66 430 313.32 430 314 430 C314 429.34 314 428.68 314 428 C315.32 428 316.64 428 318 428 C318 427.34 318 426.68 318 426 C319.32 426 320.64 426 322 426 C322 425.34 322 424.68 322 424 C323.32 424 324.64 424 326 424 C326 423.34 326 422.68 326 422 C327.32 422 328.64 422 330 422 C330 421.34 330 420.68 330 420 C331.32 420 332.64 420 334 420 C334 419.34 334 418.68 334 418 C335.32 418 336.64 418 338 418 C338 417.34 338 416.68 338 416 C339.98 416 341.96 416 344 416 C344 415.34 344 414.68 344 414 C345.32 414 346.64 414 348 414 C348 413.34 348 412.68 348 412 C349.98 412 351.96 412 354 412 C354 411.34 354 410.68 354 410 C355.32 410 356.64 410 358 410 C358 409.34 358 408.68 358 408 C359.98 408 361.96 408 364 408 C364 407.34 364 406.68 364 406 C365.98 406 367.96 406 370 406 C370 405.34 370 404.68 370 404 C371.98 404 373.96 404 376 404 C376 403.34 376 402.68 376 402 C377.32 402 378.64 402 380 402 C380 401.34 380 400.68 380 400 C382.64 400 385.28 400 388 400 C388 399.34 388 398.68 388 398 C389.98 398 391.96 398 394 398 C394 397.34 394 396.68 394 396 C396.64 396 399.28 396 402 396 C402 395.34 402 394.68 402 394 C404.64 394 407.28 394 410 394 C410 393.34 410 392.68 410 392 C412.64 392 415.28 392 418 392 C418 391.34 418 390.68 418 390 C421.3 390 424.6 390 428 390 C428 389.34 428 388.68 428 388 C431.3 388 434.6 388 438 388 C438 387.34 438 386.68 438 386 C441.96 386 445.92 386 450 386 C450 385.34 450 384.68 450 384 C454.62 384 459.24 384 464 384 C464 383.34 464 382.68 464 382 C470.6 382 477.2 382 484 382 C484 381.34 484 380.68 484 380 C489.28 380 494.56 380 500 380 C500 379.34 500 378.68 500 378 C500.66 378 501.32 378 502 378 C502 377.34 502 376.68 502 376 C502.66 376 503.32 376 504 376 C504 375.34 504 374.68 504 374 C504.66 374 505.32 374 506 374 C506 373.34 506 372.68 506 372 C506.66 372 507.32 372 508 372 C508 259.8 508 147.6 508 32 C501.73 32 495.46 32 489 32 Z M-16 70 C-16 70.66 -16 71.32 -16 72 C-16.66 72 -17.32 72 -18 72 C-18 72.66 -18 73.32 -18 74 C-18.66 74 -19.32 74 -20 74 C-20 74.66 -20 75.32 -20 76 C-20.66 76 -21.32 76 -22 76 C-22 76.66 -22 77.32 -22 78 C-22.66 78 -23.32 78 -24 78 C-24 78.66 -24 79.32 -24 80 C-24.66 80 -25.32 80 -26 80 C-26 209.36 -26 338.72 -26 472 C-4.22 472 17.56 472 40 472 C40 471.34 40 470.68 40 470 C40.66 470 41.32 470 42 470 C42 469.34 42 468.68 42 468 C42.66 468 43.32 468 44 468 C44 467.34 44 466.68 44 466 C44.66 466 45.32 466 46 466 C46 465.34 46 464.68 46 464 C46.66 464 47.32 464 48 464 C48 463.34 48 462.68 48 462 C44.04 462 40.08 462 36 462 C36 461.34 36 460.68 36 460 C32.04 460 28.08 460 24 460 C24 459.34 24 458.68 24 458 C20.04 458 16.08 458 12 458 C12 457.34 12 456.68 12 456 C7.38 456 2.76 456 -2 456 C-2 455.34 -2 454.68 -2 454 C-2.66 454 -3.32 454 -4 454 C-4 453.34 -4 452.68 -4 452 C-4.66 452 -5.32 452 -6 452 C-6 451.34 -6 450.68 -6 450 C-6.66 450 -7.32 450 -8 450 C-8 449.34 -8 448.68 -8 448 C-8.66 448 -9.32 448 -10 448 C-10 447.34 -10 446.68 -10 446 C-10.66 446 -11.32 446 -12 446 C-12 440.72 -12 435.44 -12 430 C-11.34 430 -10.68 430 -10 430 C-10 429.34 -10 428.68 -10 428 C-9.34 428 -8.68 428 -8 428 C-8 427.34 -8 426.68 -8 426 C-6.68 426 -5.36 426 -4 426 C-4 425.34 -4 424.68 -4 424 C-0.04 424 3.92 424 8 424 C8 424.66 8 425.32 8 426 C11.96 426 15.92 426 20 426 C20 426.66 20 427.32 20 428 C23.96 428 27.92 428 32 428 C32 428.66 32 429.32 32 430 C36.62 430 41.24 430 46 430 C46 430.66 46 431.32 46 432 C49.96 432 53.92 432 58 432 C58 432.66 58 433.32 58 434 C61.96 434 65.92 434 70 434 C70 434.66 70 435.32 70 436 C73.96 436 77.92 436 82 436 C82 436.66 82 437.32 82 438 C86.62 438 91.24 438 96 438 C96 438.66 96 439.32 96 440 C99.96 440 103.92 440 108 440 C108 440.66 108 441.32 108 442 C111.96 442 115.92 442 120 442 C120 442.66 120 443.32 120 444 C124.62 444 129.24 444 134 444 C134 444.66 134 445.32 134 446 C136.64 446 139.28 446 142 446 C142 445.34 142 444.68 142 444 C142.66 444 143.32 444 144 444 C144 443.34 144 442.68 144 442 C144.66 442 145.32 442 146 442 C146 441.34 146 440.68 146 440 C146.66 440 147.32 440 148 440 C148 439.34 148 438.68 148 438 C148.66 438 149.32 438 150 438 C150 437.34 150 436.68 150 436 C148.02 436 146.04 436 144 436 C144 435.34 144 434.68 144 434 C142.68 434 141.36 434 140 434 C140 433.34 140 432.68 140 432 C137.36 432 134.72 432 132 432 C132 431.34 132 430.68 132 430 C130.02 430 128.04 430 126 430 C126 429.34 126 428.68 126 428 C124.02 428 122.04 428 120 428 C120 427.34 120 426.68 120 426 C118.02 426 116.04 426 114 426 C114 425.34 114 424.68 114 424 C110.7 424 107.4 424 104 424 C104 423.34 104 422.68 104 422 C101.36 422 98.72 422 96 422 C96 421.34 96 420.68 96 420 C93.36 420 90.72 420 88 420 C88 419.34 88 418.68 88 418 C84.04 418 80.08 418 76 418 C76 417.34 76 416.68 76 416 C72.04 416 68.08 416 64 416 C64 415.34 64 414.68 64 414 C59.38 414 54.76 414 50 414 C50 413.34 50 412.68 50 412 C43.4 412 36.8 412 30 412 C30 411.34 30 410.68 30 410 C17.46 410 4.92 410 -8 410 C-8 409.34 -8 408.68 -8 408 C-8.66 408 -9.32 408 -10 408 C-10 407.34 -10 406.68 -10 406 C-10.66 406 -11.32 406 -12 406 C-12 295.12 -12 184.24 -12 70 C-13.32 70 -14.64 70 -16 70 Z M546.01503181 74.14895439 C540.98289516 79.26838461 539.82583286 82.7738719 539.6830138 89.84942162 C539.70825126 91.0926333 539.73348873 92.33584498 539.75949097 93.61672974 C539.7509847 94.97420329 539.73809051 96.33165513 539.7212249 97.68905056 C539.68772029 101.3957253 539.71596119 105.09968738 539.7548008 108.80621386 C539.78577817 112.81163426 539.75877532 116.81672593 539.7389679 120.82215881 C539.71255328 127.75385354 539.72252136 134.68472094 539.75750351 141.61636734 C539.80802733 151.63807907 539.80321174 161.65916972 539.78507616 171.68096457 C539.75714428 187.94206977 539.77369959 204.20281122 539.81835938 220.46386719 C539.86163548 236.25590563 539.88388038 252.04774381 539.87792969 267.83984375 C539.87756993 268.81396407 539.87721017 269.78808439 539.8768395 270.7917235 C539.87490516 275.67880866 539.87255828 280.56589351 539.87000632 285.45297837 C539.84938291 325.96880426 539.90101164 366.48430106 540 407 C537.08708155 408.52874082 535.10233692 409.25544166 531.7980957 409.30297852 C530.98077469 409.31962051 530.16345367 409.33626251 529.32136536 409.35340881 C528.01180122 409.36603004 528.01180122 409.36603004 526.67578125 409.37890625 C525.32277168 409.40439796 525.32277168 409.40439796 523.94242859 409.43040466 C521.0658565 409.48347703 518.18929885 409.52382237 515.3125 409.5625 C512.42506108 409.60638351 509.53773553 409.65301203 506.6504364 409.70530701 C504.85430923 409.73734424 503.05808129 409.76420909 501.26179504 409.78553772 C497.31344667 409.46069375 497.31344667 409.46069375 494 411 C490.36046804 411.27070899 486.72756476 411.44645517 483.08203125 411.60546875 C479.22526907 411.42699095 479.22526907 411.42699095 476 413 C472.7901307 413.26998901 469.58769141 413.44611437 466.37109375 413.60546875 C462.89055723 413.4970552 462.89055723 413.4970552 460 415 C457.98405418 415.23427778 455.961526 415.41336124 453.9375 415.5625 C452.28041016 415.68818359 452.28041016 415.68818359 450.58984375 415.81640625 C449.73519531 415.87699219 448.88054687 415.93757813 448 416 C448 416.66 448 417.32 448 418 C444.7 418 441.4 418 438 418 C438 418.66 438 419.32 438 420 C434.7 420 431.4 420 428 420 C428 420.66 428 421.32 428 422 C425.36 422 422.72 422 420 422 C420 422.66 420 423.32 420 424 C417.36 424 414.72 424 412 424 C412 424.66 412 425.32 412 426 C410.02 426 408.04 426 406 426 C406 426.66 406 427.32 406 428 C403.36 428 400.72 428 398 428 C398 428.66 398 429.32 398 430 C396.02 430 394.04 430 392 430 C392 430.66 392 431.32 392 432 C390.02 432 388.04 432 386 432 C386 432.66 386 433.32 386 434 C384.02 434 382.04 434 380 434 C380 434.66 380 435.32 380 436 C378.68 436 377.36 436 376 436 C376 436.66 376 437.32 376 438 C374.02 438 372.04 438 370 438 C370 438.66 370 439.32 370 440 C368.68 440 367.36 440 366 440 C366 440.66 366 441.32 366 442 C364.02 442 362.04 442 360 442 C360 442.66 360 443.32 360 444 C358.68 444 357.36 444 356 444 C356 444.66 356 445.32 356 446 C354.68 446 353.36 446 352 446 C352 446.66 352 447.32 352 448 C350.68 448 349.36 448 348 448 C348 448.66 348 449.32 348 450 C347.01 450.33 346.02 450.66 345 451 C345 451.33 345 451.66 345 452 C347.97 452 350.94 452 354 452 C354 451.34 354 450.68 354 450 C358.62 450 363.24 450 368 450 C368 449.34 368 448.68 368 448 C371.96 448 375.92 448 380 448 C380 447.34 380 446.68 380 446 C383.96 446 387.92 446 392 446 C392 445.34 392 444.68 392 444 C395.96 444 399.92 444 404 444 C404 443.34 404 442.68 404 442 C408.62 442 413.24 442 418 442 C418 441.34 418 440.68 418 440 C421.96 440 425.92 440 430 440 C430 439.34 430 438.68 430 438 C433.96 438 437.92 438 442 438 C442 437.34 442 436.68 442 436 C446.62 436 451.24 436 456 436 C456 435.34 456 434.68 456 434 C459.96 434 463.92 434 468 434 C468 433.34 468 432.68 468 432 C471.96 432 475.92 432 480 432 C480 431.34 480 430.68 480 430 C483.96 430 487.92 430 492 430 C492 429.34 492 428.68 492 428 C496.62 428 501.24 428 506 428 C506 427.34 506 426.68 506 426 C509.96 426 513.92 426 518 426 C518 425.34 518 424.68 518 424 C522.21515853 423.51507026 526.0233294 423.68786946 529.65136719 426.09619141 C531.40035641 427.50907052 533.01614294 428.99220152 534.625 430.5625 C535.42405762 431.31321777 535.42405762 431.31321777 536.23925781 432.07910156 C539.04573729 435.00351583 540.34431659 437.07750218 540.453125 441.19140625 C539.83015481 446.42757811 537.66255463 449.33744537 534 453 C531.67182036 453.36760731 529.3381615 453.70241581 527 454 C526.67 454.33 526.34 454.66 526 455 C523.16027465 455.32351301 520.31926263 455.5130429 517.46875 455.71875 C515.0586395 455.73385265 515.0586395 455.73385265 514 457 C511.16027465 457.32351301 508.31926263 457.5130429 505.46875 457.71875 C503.0586395 457.73385265 503.0586395 457.73385265 502 459 C498.63890715 459.32526705 495.2766601 459.5135946 491.90625 459.71875 C489.10949868 459.6785989 489.10949868 459.6785989 488 461 C486.29452641 461.1593349 484.58510307 461.27714669 482.875 461.375 C474.5480742 462.09580624 468.82053585 465.09100616 463 471 C463 471.33 463 471.66 463 472 C489.73 472 516.46 472 544 472 C544 471.34 544 470.68 544 470 C544.66 470 545.32 470 546 470 C546 469.34 546 468.68 546 468 C546.66 468 547.32 468 548 468 C548 467.34 548 466.68 548 466 C548.66 466 549.32 466 550 466 C550 465.34 550 464.68 550 464 C550.66 464 551.32 464 552 464 C552 333.98 552 203.96 552 70 C549.74105266 70 547.55104617 72.78272994 546.01503181 74.14895439 Z " fill="#FEFEFE" transform="translate(187,189)"/>
</svg>
