<svg width="406" height="405" xmlns="http://www.w3.org/2000/svg" xmlns:xlink="http://www.w3.org/1999/xlink" xml:space="preserve" overflow="hidden"><g transform="translate(-437 -157)"><path d="M0 0C5.36928 3.37072 8.68926 7.19129 10.8898 13.0927 12.5053 21.1987 9.46546 29.1251 6.94119 36.701 6.42155 38.2888 5.90461 39.8774 5.38921 41.4665 5.07033 42.4467 4.7485 43.4259 4.42339 44.4041 3.60609 46.7577 3.60609 46.7577 3.32512 49.2118 4.24325 49.2864 4.24325 49.2864 5.17992 49.3625 16.5923 50.5479 27.0619 55.2883 34.5813 64.1749 36.9121 67.2472 38.9601 70.3096 40.5665 73.8177 40.8271 74.3407 41.0877 74.8636 41.3562 75.4024 45.4435 85.138 44.3545 98.1347 40.4564 107.803 38.8143 111.535 36.8067 114.964 34.5813 118.374 34.1707 119.009 33.76 119.643 33.337 120.297 30.8996 123.844 28.1534 126.989 25.1462 130.054 24.8143 130.395 24.4823 130.736 24.1403 131.088 22.1915 133.012 20.5121 134.073 17.9557 135 17.3658 136.357 17.3658 136.357 17.2906 137.66 17.745 137.712 18.1993 137.765 18.6674 137.819 21.1517 138.464 23.0751 139.706 25.1878 141.11 25.5981 141.379 26.0084 141.648 26.4312 141.924 29.3447 143.86 32.0721 145.851 34.5813 148.3 34.5813 148.739 34.5813 149.178 34.5813 149.631 34.9602 149.775 35.3391 149.919 35.7295 150.067 40.7734 153.048 44.4768 160.559 47.2168 165.591 47.4283 165.978 47.6398 166.365 47.8577 166.764 49.573 170.027 50.6885 173.255 51.6225 176.813 51.758 177.305 51.8934 177.796 52.033 178.302 55.8204 192.31 54.9951 204.84 51.2069 218.793 51.0611 219.336 50.9152 219.879 50.765 220.438 46.3724 236.251 35.8655 254.074 22.6108 264.015 22.0553 264.591 22.0553 264.591 21.4886 265.179 20.6158 266.01 20.6158 266.01 19.2857 266.01 19.0594 266.59 19.0594 266.59 18.8285 267.181 17.7131 269.084 16.4364 269.946 14.6305 271.205 13.9722 271.667 13.3138 272.129 12.6355 272.606 11.6479 273.291 11.6479 273.291 10.6404 273.99 10.078 274.399 9.51567 274.808 8.93627 275.229-1.31088 282.635-1.31088 282.635-4.65517 282.635-4.65517 283.074-4.65517 283.513-4.65517 283.966-9.06096 285.961-9.06096 285.961-11.3054 285.961-11.3054 286.4-11.3054 286.838-11.3054 287.291-22.7187 292.402-22.7187 292.402-27.931 293.941-28.7266 294.202-29.5221 294.462-30.3417 294.731-33.6513 295.527-36.0719 295.881-39.1533 294.273-40.6676 292.492-41.1158 291.12-41.4627 288.816-40.8029 284.464-37.716 281.547-34.5397 278.812-33.8389 278.192-33.1384 277.572-32.4381 276.952-31.8286 276.413-31.2191 275.875-30.5911 275.32-30.2079 274.919-29.8247 274.518-29.4299 274.104-28.5961 273.325-28.5961 273.325-27.266 273.325-27.0191 272.79-27.0191 272.79-26.7672 272.244-25.7321 270.278-24.5831 268.472-23.2759 266.675-22.8369 266.675-22.398 266.675-21.9458 266.675-21.7702 266.302-21.5946 265.928-21.4136 265.544-20.5453 263.88-19.5513 262.379-18.4908 260.83-13.5052 253.446-9.06641 246.246-5.79591 237.945-5.38948 236.923-4.95141 235.913-4.5071 234.907 2.54633 218.735 4.13336 196.715-1.87038 180.094-5.5769 171.328-11.4278 164.704-20.2105 160.915-23.3279 159.77-25.9515 159.395-29.2611 159.606-30.8258 164.601-32.3279 169.612-33.7864 174.639-33.9517 175.208-34.117 175.777-34.2873 176.364-34.972 178.722-35.6562 181.08-36.337 183.44-38.6712 191.523-41.1673 199.527-43.8916 207.488-43.2896 207.461-43.2896 207.461-42.6753 207.433-28.5089 206.821-28.5089 206.821-22.6108 211.478-17.7811 216.134-15.3173 221.008-15.0046 227.688-15.1801 233.639-17.2834 238.838-21.5536 242.978-23.5926 244.824-25.1771 245.816-27.931 246.059-27.931 246.498-27.931 246.937-27.931 247.389-31.2539 248.705-34.1738 248.998-37.6986 249.01-38.2278 249.013-38.7571 249.015-39.3024 249.018-43.2152 248.942-46.1194 248.175-49.508 246.121-51.9264 245.086-53.9083 245.283-56.5271 245.394-56.8726 246.093-57.218 246.791-57.574 247.511-64.6439 261.765-72.7615 276.262-84.4581 287.291-84.8285 287.688-85.1988 288.086-85.5804 288.496-86.4532 289.286-86.4532 289.286-87.7832 289.286-87.7832 289.725-87.7832 290.164-87.7832 290.616-88.8769 291.741-88.8769 291.741-90.3187 292.985-90.7893 293.397-91.2599 293.81-91.7448 294.234-93.1034 295.271-93.1034 295.271-95.0985 295.936-95.0985 296.375-95.0985 296.814-95.0985 297.266-97.1897 298.985-99.4938 300.426-101.749 301.921-102.316 302.302-102.884 302.682-103.468 303.075-121.848 315.107-144.005 322.811-166.131 318.381-178.376 315.209-187.677 308.76-194.187 297.931-197.099 291.823-196.933 285.134-194.803 278.804-193.936 276.707-192.963 275.085-191.527 273.325-191.088 273.325-190.649 273.325-190.197 273.325-189.971 272.749-189.971 272.749-189.74 272.161-188.216 269.549-186.275 268.304-183.505 267.174-177.983 265.835-172.703 266.308-167.586 268.67-167.586 269.109-167.586 269.548-167.586 270-166.846 270.226-166.846 270.226-166.09 270.457-162.454 272.193-160.758 275.87-158.941 279.31-158.941 279.749-158.941 280.188-158.941 280.64-158.061 281.098-157.172 281.536-156.281 281.97-155.568 282.327-154.854 282.684-154.119 283.051-148.933 284.953-143.485 284.069-138.525 281.822-134.797 279.873-131.498 277.624-128.267 274.933-127.02 273.99-127.02 273.99-125.025 273.325-124.572 272.443-124.131 271.555-123.695 270.665-122.682 269.506-121.639 268.372-120.577 267.257-115.701 262.02-111.983 256.22-108.399 250.049-109.496 249.83-110.594 249.61-111.724 249.384-111.724 249.823-111.724 250.262-111.724 250.714-112.693 250.927-113.663 251.133-114.634 251.338-115.174 251.453-115.714 251.569-116.27 251.688-129.819 253.98-147.379 254.906-160.271 249.384-161.293 249.082-162.318 248.792-163.347 248.511-167.152 247.4-170.67 245.779-174.236 244.064-174.236 243.625-174.236 243.186-174.236 242.734-177.199 241.746-177.199 241.746-180.222 240.739-180.222 240.3-180.222 239.861-180.222 239.409-180.785 239.26-181.348 239.111-181.928 238.957-184.648 237.911-186.576 236.488-188.825 234.671-189.235 234.344-189.645 234.018-190.067 233.682-192.696 231.547-195.047 229.334-197.162 226.675-198.221 225.348-198.221 225.348-199.739 223.903-211.482 212.021-220.648 195.13-221.453 178.227-221.892 178.227-222.331 178.227-222.783 178.227-224.759 164.926-225.847 149.905-221.453 136.995-221.053 135.385-220.688 133.77-220.324 132.152-218.892 125.814-217.275 119.742-214.803 113.719-214.493 112.962-214.182 112.205-213.863 111.425-211.56 106.18-208.782 101.308-205.784 96.4286-205.423 95.8404-205.063 95.2523-204.691 94.6464-202.783 91.602-200.791 88.8002-198.399 86.1187-197.239 84.8162-196.193 83.439-195.143 82.0474-193.397 79.7879-191.671 77.7076-189.532 75.8128-189.093 75.8128-188.654 75.8128-188.202 75.8128-188.028 75.4142-187.854 75.0156-187.675 74.6049-186.824 73.0658-186.032 72.2904-184.669 71.1992-183.139 69.9461-181.71 68.6834-180.346 67.2506-178.892 65.8374-178.892 65.8374-177.562 65.8374-177.562 65.3985-177.562 64.9596-177.562 64.5074-174.646 62.5123-174.646 62.5123-172.906 62.5123-172.906 62.0734-172.906 61.6345-172.906 61.1823-171.51 60.2026-170.128 59.3115-168.667 58.439-168.266 58.1913-167.864 57.9435-167.451 57.6883-164.441 55.8621-164.441 55.8621-162.931 55.8621-162.931 55.4231-162.931 54.9842-162.931 54.532-156.566 51.4927-150.211 48.4741-143.645 45.8867-143.025 45.6407-142.404 45.3946-141.765 45.1411-138.295 43.8181-134.932 42.8337-131.267 42.2239-129.617 41.9224-129.617 41.9224-127.854 41.2419-113.781 36.8495-93.3136 37.3583-79.3795 42.042-77.6259 42.6217-75.858 43.0668-74.0671 43.5176-70.8411 44.3941-68.0845 45.5965-65.1724 47.2168-64.5509 47.5502-63.9294 47.8837-63.289 48.2273-60.7529 49.5934-58.26 50.9383-55.8621 52.5369-53.9488 52.6533-53.9488 52.6533-51.8719 52.4538-51.1724 52.411-50.4729 52.3681-49.7522 52.3239-47.8707 52.0275-47.8707 52.0275-46.7466 50.8406-45.5623 48.5973-44.8248 46.2697-44.0994 43.8501-43.9309 43.3072-43.7623 42.7642-43.5887 42.2049-42.5579 38.8576-41.5876 35.496-40.6418 32.1238-34.1593 9.18329-34.1593 9.18329-25.936 2.6601-25.3325 2.16632-24.7289 1.67254-24.1071 1.16379-15.8115-3.30308-8.58861-3.98118 0 0ZM-132.932 88.1755C-133.807 89.0887-133.807 89.0887-133.67 90.4434-134.109 90.4434-134.548 90.4434-135 90.4434-135 90.8823-135 91.3212-135 91.7734-135.439 91.7734-135.878 91.7734-136.33 91.7734-137.037 92.8553-137.693 93.9709-138.325 95.0985-138.928 96.0565-138.928 96.0565-139.543 97.0339-143.825 103.849-147.386 110.732-150.179 118.304-150.715 119.721-151.302 121.119-151.93 122.497-153.303 125.67-154.1 128.997-154.951 132.34-155.125 133.016-155.299 133.692-155.479 134.389-156.647 138.984-157.676 143.58-158.551 148.241-158.886 150.007-159.271 151.748-159.689 153.496-162.769 167.253-162.605 184.812-156.281 197.512-155.963 198.158-155.645 198.803-155.317 199.468-151.814 206.225-147.663 211.246-140.481 214.237-137.854 214.927-135.46 215.032-132.756 215.011-132 215.005-132 215.005-131.229 214.999-124.942 214.862-120.742 212.509-115.714 208.818-115.182 208.435-114.65 208.051-114.101 207.657-111.964 205.785-110.385 203.717-108.732 201.419-108.409 200.972-108.086 200.525-107.753 200.064-103.382 193.91-100.763 187.3-98.2366 180.228-97.8002 179.008-97.3539 177.791-96.9066 176.574-94.7619 170.498-93.2581 164.32-91.8098 158.046-91.0433 154.729-90.1941 151.529-89.1133 148.3-88.1982 144.491-87.5055 140.628-86.7873 136.778-86.577 135.659-86.3612 134.541-86.1373 133.425-84.6379 125.891-84.2524 118.431-84.2087 110.768-84.2035 110.318-84.1983 109.869-84.1929 109.405-84.0972 98.8402-85.6209 89.9209-93.1866 82.1721-94.0275 81.3632-94.8861 80.5721-95.7635 79.803-96.1459 79.4523-96.5282 79.1017-96.9221 78.7405-109.565 70.8879-123.983 79.1625-132.932 88.1755ZM-7.9803 83.7931C-10.5547 92.135-13.0688 100.494-15.5123 108.875-15.7836 109.805-16.0554 110.735-16.3278 111.664-16.7121 112.976-17.094 114.289-17.4751 115.603-17.6962 116.362-17.9173 117.121-18.1451 117.904-18.6773 119.608-18.6773 119.608-18.6207 121.034-12.6443 120.31-7.93479 115.981-3.99015 111.724-0.190644 106.302 2.01313 100.546 1.02611 93.9036 0.124381 90.2447-1.61175 86.7638-4.65517 84.4581-5.75737 84.2076-6.8659 83.9822-7.9803 83.7931Z" fill="#FFFFFF" transform="matrix(1.00247 0 0 1 719 198.232)"/></g></svg>