<?xml version="1.0" encoding="UTF-8"?>
<svg version="1.1" xmlns="http://www.w3.org/2000/svg" width="406" height="405">
<path d="M0 0 C133.98 0 267.96 0 406 0 C406 133.65 406 267.3 406 405 C272.02 405 138.04 405 0 405 C0 271.35 0 137.7 0 0 Z " fill="#03060B" transform="translate(0,0)"/>
<path d="M0 0 C4.83830027 2.85572713 9.11172629 7.47345259 11.625 12.5 C12.79319731 23.0805299 10.09497334 31.70971808 6.625 41.5 C6.01742851 43.33220778 5.41252535 45.1653071 4.8125 47 C4.420625 48.155 4.02875 49.31 3.625 50.5 C4.759375 50.438125 5.89375 50.37625 7.0625 50.3125 C16.53930881 50.3624656 25.64666599 55.01359623 32.6015625 61.28125 C41.89716503 71.27299897 45.05481341 81.17306222 44.8359375 94.45703125 C44.31350825 108.40460224 35.95133072 120.63983891 26.625 130.5 C24.53120884 132.26245047 22.42988218 133.85864029 20.15625 135.37890625 C18.46575232 136.43725069 18.46575232 136.43725069 17.625 138.5 C18.36234375 138.61214844 19.0996875 138.72429687 19.859375 138.83984375 C30.05925984 141.27456202 39.43268635 151.21260257 44.875 159.6875 C55.21469127 177.39499523 58.19905243 198.21145395 53 218.25 C47.40293726 236.92651461 37.74571223 254.86337667 21.625 266.5 C20.965 266.5 20.305 266.5 19.625 266.5 C19.23429321 267.40564697 19.23429321 267.40564697 18.83569336 268.32958984 C17.52969902 270.67084607 16.41802302 271.68288604 14.25390625 273.2265625 C13.26874023 273.938125 13.26874023 273.938125 12.26367188 274.6640625 C11.57853516 275.14617187 10.89339844 275.62828125 10.1875 276.125 C9.50623047 276.61484375 8.82496094 277.1046875 8.12304688 277.609375 C-0.09324838 283.5 -0.09324838 283.5 -4.375 283.5 C-4.375 284.16 -4.375 284.82 -4.375 285.5 C-30.5121266 297.31450925 -30.5121266 297.31450925 -38.375 295.5 C-40.375 293.5 -40.375 293.5 -40.9375 290.375 C-39.84588187 282.85496402 -33.48994353 278.48727504 -27.875 273.875 C-25.85219866 272.02076543 -24.67201423 269.89947632 -23.375 267.5 C-22.37644159 266.49856048 -21.37632984 265.49866839 -20.375 264.5 C-13.37193229 254.37493532 -7.889261 243.93696852 -3.375 232.5 C-3.03726563 231.67113281 -2.69953125 230.84226562 -2.3515625 229.98828125 C3.0481537 215.52666509 4.10960928 196.04973708 -1.375 181.5 C-5.14996295 173.32679362 -10.65437004 166.50655641 -18.9375 162.625 C-22.4348007 161.48042886 -25.71892801 160.87306857 -29.375 160.5 C-29.48094482 161.1693457 -29.58688965 161.83869141 -29.69604492 162.52832031 C-30.84063893 169.31890701 -32.52430743 175.71878861 -34.6875 182.25 C-34.99437744 183.19504395 -35.30125488 184.14008789 -35.61743164 185.11376953 C-36.52854807 187.91191039 -37.44989805 190.70645556 -38.375 193.5 C-38.64344727 194.3137207 -38.91189453 195.12744141 -39.18847656 195.96582031 C-40.56971357 200.14874064 -41.96445039 204.32685322 -43.375 208.5 C-42.28960937 208.45359375 -41.20421875 208.4071875 -40.0859375 208.359375 C-38.64065269 208.32183513 -37.19533789 208.28543736 -35.75 208.25 C-35.03714844 208.21648437 -34.32429687 208.18296875 -33.58984375 208.1484375 C-28.36425778 208.05255519 -25.51326113 209.04843722 -21.375 212.5 C-19.51171875 214.53515625 -19.51171875 214.53515625 -18.0625 216.5625 C-17.57136719 217.23410156 -17.08023438 217.90570313 -16.57421875 218.59765625 C-13.65802761 223.22366631 -13.81884999 228.22049143 -14.375 233.5 C-16.15851022 239.39067948 -19.34424701 243.07480647 -24.375 246.5 C-25.365 246.5 -26.355 246.5 -27.375 246.5 C-27.375 247.16 -27.375 247.82 -27.375 248.5 C-30.8974754 249.57918977 -34.20259801 249.66644265 -37.875 249.6875 C-38.9990625 249.70167969 -40.123125 249.71585938 -41.28125 249.73046875 C-44.375 249.5 -44.375 249.5 -46.28125 248.48828125 C-49.59745804 246.92298156 -52.73856163 247.37878539 -56.375 247.5 C-56.62556152 248.00225098 -56.87612305 248.50450195 -57.13427734 249.02197266 C-64.52054554 263.71746407 -72.36804225 278.90381459 -85.375 289.5 C-86.035 289.5 -86.695 289.5 -87.375 289.5 C-87.63152344 290.08523438 -87.88804687 290.67046875 -88.15234375 291.2734375 C-96.24080754 306.00322779 -119.30842158 313.91984665 -134.375 318.5 C-148.66294741 322.53829185 -165.51946836 322.12212023 -178.625 314.8125 C-186.80939861 309.49658836 -193.25049789 302.87350633 -196.375 293.5 C-197.05634733 286.5860001 -196.87756176 280.13196689 -192.375 274.5 C-191.385 274.17 -190.395 273.84 -189.375 273.5 C-189.065625 272.860625 -188.75625 272.22125 -188.4375 271.5625 C-187.07728393 268.92208057 -186.12895744 268.55778061 -183.375 267.5 C-180.5 267.234375 -180.5 267.234375 -177.375 267.25 C-176.34375 267.24484375 -175.3125 267.2396875 -174.25 267.234375 C-171.42902722 267.49500835 -169.77354282 268.04703656 -167.375 269.5 C-167.375 270.16 -167.375 270.82 -167.375 271.5 C-166.776875 271.57347656 -166.17875 271.64695312 -165.5625 271.72265625 C-162.5921052 272.77820726 -161.95540958 274.25338047 -160.375 276.9375 C-158.394379 280.29056218 -157.10658361 282.18983002 -153.375 283.5 C-143.14234621 285.25032236 -135.42001383 280.9622644 -127.1875 275.3125 C-119.73748187 267.86248187 -113.79277087 259.50639081 -108.375 250.5 C-109.86773437 250.933125 -109.86773437 250.933125 -111.390625 251.375 C-126.6910499 255.54480652 -142.14410953 256.5401205 -157.375 251.5 C-158.27347656 251.26796875 -159.17195313 251.0359375 -160.09765625 250.796875 C-176.2057471 246.27686051 -190.77214054 236.24575316 -201.375 223.5 C-202.03886719 222.71238281 -202.70273438 221.92476562 -203.38671875 221.11328125 C-210.32085299 212.69986504 -215.22111351 204.6254566 -218.75 194.3125 C-219.01312988 193.55195313 -219.27625977 192.79140625 -219.54736328 192.0078125 C-221.06806439 187.31992151 -221.64897731 183.42506829 -221.375 178.5 C-222.035 178.5 -222.695 178.5 -223.375 178.5 C-224.19350632 172.15657599 -224.50933723 165.88883633 -224.5625 159.5 C-224.57539063 158.76539551 -224.58828125 158.03079102 -224.6015625 157.27392578 C-224.61180334 151.47633218 -223.63517799 146.14380881 -222.375 140.5 C-222.04987219 138.86606604 -221.72565205 137.23195121 -221.40234375 135.59765625 C-216.62047655 112.92119772 -206.31161005 92.5812257 -189.375 76.5 C-188.715 76.5 -188.055 76.5 -187.375 76.5 C-187.16875 75.96375 -186.9625 75.4275 -186.75 74.875 C-184.84249574 71.58021991 -182.32680616 68.90636372 -179.375 66.5 C-178.715 66.5 -178.055 66.5 -177.375 66.5 C-177.375 65.84 -177.375 65.18 -177.375 64.5 C-174.9 64.005 -174.9 64.005 -172.375 63.5 C-171.88 62.015 -171.88 62.015 -171.375 60.5 C-166.11785714 56.5 -166.11785714 56.5 -162.375 56.5 C-162.375 55.84 -162.375 55.18 -162.375 54.5 C-135.0310746 41.32754838 -105.22776383 33.2557143 -75.375 43.5 C-74.34375 43.82355469 -73.3125 44.14710937 -72.25 44.48046875 C-67.82812755 45.95242357 -64.1224961 47.56103655 -60.3125 50.25 C-55.81991753 53.30420887 -51.61054013 52.89345056 -46.375 52.5 C-46.19831787 51.84733154 -46.02163574 51.19466309 -45.83959961 50.5222168 C-43.91596155 43.43964581 -41.95549679 36.36877704 -39.9375 29.3125 C-39.65068359 28.28447266 -39.36386719 27.25644531 -39.06835938 26.19726562 C-35.50356159 13.78795841 -31.13574588 7.14417882 -20.625 -0.5 C-14.07089771 -2.51664686 -6.37543573 -2.80170516 0 0 Z " fill="#F8F8F8" transform="translate(281.375,40.5)"/>
<path d="M0 0 C7.15357745 4.31141537 11.70550769 11.14447809 14.3828125 18.9609375 C14.83823186 23.73939642 14.77058931 28.5381018 14.7578125 33.3359375 C14.75799377 34.37004761 14.75799377 34.37004761 14.75817871 35.42504883 C14.72625136 48.24796201 13.27013778 60.46294379 10.3828125 72.9609375 C10.23328125 73.63898438 10.08375 74.31703125 9.9296875 75.015625 C8.0397447 83.45036973 5.23398722 91.60233468 2.4453125 99.7734375 C2.12143555 100.72863281 1.79755859 101.68382812 1.46386719 102.66796875 C-3.62805646 117.23076925 -9.98311594 128.95211225 -23.6171875 136.9609375 C-29.92609006 139.06390502 -38.11088891 139.25299127 -44.39453125 136.9375 C-53.16615124 131.50959156 -57.42862458 122.43966546 -60.6171875 112.9609375 C-60.97554688 111.91679687 -61.33390625 110.87265625 -61.703125 109.796875 C-65.00841792 95.92594487 -62.71749529 80.89772061 -59.21142578 67.29199219 C-58.60963304 64.93130317 -58.06126849 62.56262325 -57.51953125 60.1875 C-53.32924873 42.40686728 -46.1433722 22.77860776 -32.6171875 9.9609375 C-32.06675781 9.4246875 -31.51632813 8.8884375 -30.94921875 8.3359375 C-22.32229821 0.52957238 -11.59421972 -4.60307828 0 0 Z " fill="#04070C" transform="translate(182.6171875,118.0390625)"/>
<path d="M0 0 C3.34170288 0.9282508 4.93461942 1.92931829 7.3125 4.5 C10.13270128 10.34930637 9.8526004 16.12969881 7.8125 22.25 C5.13537178 28.45493271 0.89237996 32.75317839 -5 36 C-6.99205431 36.37792952 -8.99212603 36.71794816 -11 37 C-8.85003017 27.94483295 -6.47709857 18.98094518 -3.8125 10.0625 C-3.55065918 9.18045898 -3.28881836 8.29841797 -3.01904297 7.38964844 C-2.7717041 6.57141602 -2.52436523 5.75318359 -2.26953125 4.91015625 C-1.93852417 3.81392944 -1.93852417 3.81392944 -1.60083008 2.69555664 C-1 1 -1 1 0 0 Z " fill="#0B0E12" transform="translate(274,125)"/>
</svg>
