<svg width="364" height="365" xmlns="http://www.w3.org/2000/svg" xmlns:xlink="http://www.w3.org/1999/xlink" xml:space="preserve" overflow="hidden"><defs><clipPath id="clip0"><rect x="458" y="146" width="364" height="365"/></clipPath></defs><g clip-path="url(#clip0)" transform="translate(-458 -146)"><path d="M0 0C120.12 0 240.24 0 364 0 364 120.297 364 240.595 364 364.538 243.88 364.538 123.76 364.538 0 364.538 0 244.24 0 123.943 0 0Z" fill="#FEFEFE" transform="matrix(1 0 0 1.00127 458 146)"/><path d="M0 0C0.50214 0.282779 0.50214 0.282779 1.01442 0.57127 4.31653 2.63419 6.23471 5.7429 7.72895 9.27474 8.72711 15.2637 7.75548 19.8199 5.73371 25.4131 4.79807 28.0086 4.04643 30.6393 3.32681 33.3017 3.16027 33.9174 3.16027 33.9174 2.99037 34.5454 2.83566 35.1181 2.83566 35.1181 2.67783 35.7023 2.35321 36.8934 2.0034 38.0784 1.613 39.2496 1.9138 39.2635 2.2146 39.2774 2.52451 39.2916 10.5539 39.8596 18.808 42.7539 24.7326 48.39 24.7326 48.7448 24.7326 49.0997 24.7326 49.4653 25.0875 49.4653 25.4424 49.4653 25.808 49.4653 29.2984 53.3329 31.6499 57.4404 33.3353 62.3693 33.5682 63.0346 33.8011 63.7 34.041 64.3855 36.0465 74 33.4932 84.8966 28.3073 93.0982 24.5293 98.719 20.234 103.773 15.0799 108.168 13.9394 109.06 13.9394 109.06 13.4417 110.222 13.8249 110.368 14.2082 110.514 14.6031 110.665 26.7471 115.693 34.7232 126.424 39.9385 138.111 40.505 139.555 40.9728 140.991 41.4003 142.482 41.5604 143.037 41.7205 143.593 41.8855 144.166 43.9339 152.605 43.9494 162.534 41.938 170.978 41.8541 171.335 41.7702 171.693 41.6838 172.061 38.0852 187.049 30.3754 199.079 19.8937 210.227 19.606 210.544 19.3184 210.86 19.022 211.185 7.97456 222.866-7.47471 230.322-22.3907 235.555-23.6549 236.006-23.6549 236.006-24.7842 236.621-26.4376 237.412-27.7719 237.3-29.5716 237.111-31.6667 236.018-32.1591 235.226-32.9993 233.011-33.1197 230.823-32.3375 229.818-30.9158 228.206-29.9417 227.215-28.9596 226.245-27.9586 225.282-16.2445 213.841-7.25795 201.203-2.15066 185.495-1.95799 184.952-1.76531 184.409-1.56679 183.85 2.6563 171.387 3.87757 155.509-1.49328 143.236-4.82214 136.695-9.11524 131.285-16.1657 128.62-18.9556 127.853-21.8567 127.651-24.7326 127.427-24.8387 128.26-24.8387 128.26-24.9469 129.109-25.2314 130.94-25.6191 132.61-26.144 134.383-26.3374 135.041-26.5308 135.7-26.73 136.378-26.8394 136.747-26.9488 137.117-27.0616 137.497-27.4567 138.839-27.8436 140.183-28.2296 141.528-30.7063 150.129-33.3467 158.674-36.0236 167.214-35.6688 167.037-35.3139 166.859-34.9483 166.677-28.6352 166.153-23.169 167.043-18.1651 171.102-14.8039 174.434-12.9139 178.221-12.7024 182.941-12.8109 187.646-14.5388 191.354-17.7451 194.767-19.5314 196.337-21.5019 197.416-23.6573 198.399-24.0655 198.595-24.4738 198.791-24.8944 198.993-29.2438 200.435-34.3183 199.985-38.4431 198.13-38.9144 197.88-39.3857 197.631-39.8713 197.374-41.9159 196.588-43.5196 196.693-45.7016 196.786-45.8689 197.099-46.0362 197.412-46.2086 197.735-53.0868 210.578-60.257 221.799-70.4343 232.272-70.7467 232.594-71.0592 232.916-71.3811 233.248-83.1719 245.242-99.0727 253.271-115.598 255.929-116.11 256.028-116.623 256.127-117.15 256.229-128.526 257.842-139.451 255.439-148.902 248.925-153.961 244.777-157.533 238.599-158.204 232.083-158.446 227.49-156.846 223.337-154.073 219.691-150.982 216.516-147.641 214.99-143.254 214.831-139.336 214.872-136.83 215.711-133.879 218.292-131.985 220.34-130.478 222.549-129.006 224.912-127.741 226.668-126.636 227.462-124.739 228.508-123.236 228.704-121.994 228.792-120.504 228.743-120.122 228.735-119.739 228.728-119.345 228.719-116.499 228.617-114.322 228.239-111.835 226.895-111.392 226.685-110.949 226.475-110.493 226.259-103.932 222.974-99.0196 218.179-94.6292 212.378-94.3506 212.033-94.072 211.688-93.785 211.332-91.0004 207.817-88.8265 203.873-86.5643 200.012-86.9552 200.116-87.3461 200.22-87.7488 200.327-88.2894 200.467-88.83 200.607-89.387 200.751-89.911 200.888-90.435 201.026-90.9748 201.167-96.8895 202.494-102.6 202.918-108.642 202.902-109.058 202.901-109.474 202.901-109.902 202.901-116.315 202.88-122.355 202.524-128.502 200.549-129.046 200.381-129.046 200.381-129.6 200.209-140.565 196.718-149.743 190.67-158.074 182.807-158.437 182.472-158.8 182.137-159.174 181.792-168.277 173.108-174.628 161.22-177.867 149.135-177.972 148.744-178.076 148.354-178.184 147.951-179.884 141.161-180.338 134.391-180.32 127.427-180.32 127.016-180.32 126.605-180.319 126.182-180.3 119.239-179.698 112.667-177.968 105.92-177.87 105.521-177.772 105.122-177.671 104.71-174.577 92.3029-168.747 79.8935-160.762 69.8966-160.432 69.4586-160.102 69.0205-159.762 68.5692-153.989 61.1403-147.005 54.2653-139.256 48.9276-138.93 48.6975-138.605 48.4674-138.269 48.2303-119.094 34.76-94.6098 27.8228-71.2114 31.6719-68.3909 32.2404-65.6451 32.9935-62.9069 33.873-62.5128 33.9966-62.1187 34.1202-61.7127 34.2476-57.5759 35.58-53.8452 37.3085-50.0702 39.4513-46.9271 41.2284-44.4633 42.0077-40.8626 41.4003-39.7873 41.221-38.712 41.0417-37.6366 40.8626-37.4017 40.1578-37.4017 40.1578-37.162 39.4387-36.8314 38.4468-36.8314 38.4468-36.4941 37.435-36.3745 37.0759-36.2549 36.7168-36.1316 36.3468-35.4667 34.351-34.8005 32.3557-34.1318 30.3612-32.8951 26.6681-31.6675 22.9744-30.5042 19.2573-30.3219 18.6837-30.1396 18.1102-29.9518 17.5193-29.6208 16.4743-29.2968 15.4271-28.9815 14.3773-26.9427 8.00508-22.718 2.75291-17.0247-0.779196-11.6671-3.31558-5.03532-3.11759 0 0Z" fill="#0E171B" transform="matrix(1 0 0 1.00127 708.015 208.448)"/><path d="M0 0C5.32321 3.65499 8.117 8.21372 9.93632 14.3574 10.0576 14.7233 10.1789 15.0893 10.3039 15.4663 12.3505 22.6931 10.9883 31.2359 9.93632 38.5523 9.87559 38.9872 9.81486 39.422 9.75229 39.87 6.63656 61.4799 1.48584 93.4523-16.947 107.374-18.3396 108.215-19.7444 108.907-21.2483 109.524-21.6371 109.716-22.026 109.907-22.4266 110.104-26.9544 111.59-33.5261 111.326-37.7921 109.226-45.5926 104.171-49.4853 96.5326-51.4206 87.6207-52.1218 83.5455-52.0756 79.4445-52.065 75.3214-52.0633 73.9494-52.0759 72.5781-52.0896 71.2061-52.1122 65.4798-51.5141 60.2739-50.2823 54.6823-50.0342 53.3368-49.7864 51.9913-49.5388 50.6456-48.6694 46.3528-47.4355 42.2307-46.0482 38.0819-45.9218 37.7015-45.7955 37.321-45.6653 36.9291-42.3344 26.9979-37.9868 16.8577-30.9263 8.98071-30.6862 8.7104-30.446 8.4401-30.1986 8.1616-22.395-0.4973-11.1366-6.36376 0 0Z" fill="#FDFDFD" transform="matrix(1 0 0 1.00127 629.795 271.057)"/><path d="M0 0C3.32842 0.649448 5.13592 2.6701 6.98966 5.37666 8.37306 9.12934 8.04546 14.2136 6.68722 17.911 3.75578 24.1634-1.2488 28.4784-7.52733 31.1846-8.05962 31.1846-8.59191 31.1846-9.14033 31.1846-7.54963 24.4662-5.64654 17.8549-3.68569 11.2364-3.25367 9.77181-2.82779 8.30564-2.4048 6.83844-2.28138 6.41215-2.15797 5.98586-2.03082 5.54665-1.80254 4.75773-1.5754 3.96849-1.34955 3.17887-0.598264 0.598264-0.598264 0.598264 0 0Z" fill="#F9F9F9" transform="matrix(1 0 0 1.00127 701.563 274.665)"/><path d="M0 0C0.347236 0.21347 0.694472 0.426941 1.05223 0.64688 3.04991 1.97587 4.50761 3.40725 5.91433 5.37666 5.7369 5.73152 5.55947 6.08638 5.37666 6.45199 4.0997 6.5192 4.0997 6.5192 2.68833 6.45199 2.33347 6.09713 1.97861 5.74228 1.613 5.37666 1.43557 5.73152 1.25814 6.08638 1.07533 6.45199-0.0336041 6.78804-0.0336041 6.78804-1.07533 6.98966-1.34148 6.45737-1.34148 6.45737-1.613 5.91433-1.25814 5.91433-0.903279 5.91433-0.537666 5.91433-0.803811 5.11589-0.803811 5.11589-1.07533 4.30133-0.840103 3.12518-0.840103 3.12518-0.537666 2.15066-0.959062 2.07304-1.38046 1.99541-1.81462 1.91544-3.226 1.613-3.226 1.613-4.30133 1.07533-4.30133 1.43019-4.30133 1.78505-4.30133 2.15066-4.65619 2.15066-5.01105 2.15066-5.37666 2.15066-5.0218 1.26352-4.66694 0.376366-4.30133-0.537666-5.01105-0.715096-5.72077-0.892526-6.45199-1.07533-6.45199-0.543043-6.45199-0.0107533-6.45199 0.537666-6.80685 0.537666-7.16171 0.537666-7.52733 0.537666-7.52733 0.182807-7.52733-0.172053-7.52733-0.537666-7.88219-0.537666-8.23705-0.537666-8.60266-0.537666-8.33651 0.526913-8.33651 0.526913-8.06499 1.613-8.41985 1.613-8.77471 1.613-9.14033 1.613-9.31776 2.32272-9.49518 3.03244-9.67799 3.76366-9.32313 3.76366-8.96827 3.76366-8.60266 3.76366-8.33651 5.36053-8.33651 5.36053-8.06499 6.98966-8.74144 7.04511-9.4179 7.10055-10.1148 7.15768-11.8624 7.32346-11.8624 7.32346-13.2064 8.36743-13.9793 9.14033-13.9793 9.14033-15.8275 9.20753-16.4596 9.18536-17.0917 9.16318-17.743 9.14033-18.1533 9.25122-18.5636 9.36211-18.9863 9.47637-19.2857 9.5429-19.5852 9.60944-19.8937 9.67799-20.2485 9.32313-20.6034 8.96827-20.969 8.60266-21.8451 10.8188-22.1855 12.2088-21.5066 14.517-22.3938 14.6944-23.2809 14.8718-24.195 15.0547-24.195 14.6998-24.195 14.3449-24.195 13.9793-25.0821 14.1568-25.9693 14.3342-26.8833 14.517-26.6172 14.0346-26.6172 14.0346-26.3456 13.5425-25.6962 12.3374-25.6962 12.3374-25.808 10.7533-26.3403 10.9308-26.8726 11.1082-27.421 11.291-25.8371 6.22257-21.493 1.96495-17.0583-0.747692-11.686-3.28213-5.05223-3.15636 0 0ZM-24.195 9.67799C-24.3724 10.2103-24.5498 10.7426-24.7326 11.291-24.3778 11.291-24.0229 11.291-23.6573 11.291-23.8347 10.7587-24.0122 10.2264-24.195 9.67799Z" fill="#2D2F32" transform="matrix(1 0 0 1.00127 708.015 208.448)"/><path d="M0 0C1.24201 0.17743 2.48402 0.35486 3.76366 0.537666 3.94109 1.42482 4.11852 2.31196 4.30133 3.226 3.94647 3.226 3.59161 3.226 3.226 3.226 3.04857 3.93572 2.87114 4.64544 2.68833 5.37666 3.04319 5.37666 3.39805 5.37666 3.76366 5.37666 3.94109 6.44124 4.11852 7.50582 4.30133 8.60266 3.62488 8.65811 2.94843 8.71355 2.25148 8.77068 0.503943 8.93646 0.503943 8.93646-0.840103 9.98043-1.613 10.7533-1.613 10.7533-3.46123 10.8205-4.09332 10.7984-4.72541 10.7762-5.37666 10.7533-6.61887 10.9837-6.61887 10.9837-7.52733 11.291-7.88219 10.7587-8.23705 10.2264-8.60266 9.67799-8.25889 9.62255-7.91512 9.5671-7.56093 9.50997-7.01201 9.327-7.01201 9.327-6.45199 9.14033-6.27456 8.60804-6.09713 8.07575-5.91433 7.52733-5.55947 7.52733-5.20461 7.52733-4.839 7.52733-5.19386 7.17247-5.54872 6.81761-5.91433 6.45199-5.55947 6.45199-5.20461 6.45199-4.839 6.45199-4.839 6.09713-4.839 5.74228-4.839 5.37666-4.48414 5.19923-4.12928 5.0218-3.76366 4.839-3.58623 4.48414-3.4088 4.12928-3.226 3.76366-2.69371 3.58623-2.16142 3.4088-1.613 3.226-1.43557 2.69371-1.25814 2.16142-1.07533 1.613-0.543043 1.43557-0.0107533 1.25814 0.537666 1.07533 0.360236 0.720473 0.182807 0.365613 0 0Z" fill="#292C30" transform="matrix(1 0 0 1.00127 695.648 206.833)"/><path d="M0 0C0.730192 0.390536 1.44838 0.804605 2.15066 1.24335 2.4979 1.45682 2.84514 1.67029 3.20289 1.89023 5.20058 3.21922 6.65827 4.65061 8.06499 6.62002 7.88756 6.97487 7.71013 7.32973 7.52733 7.69535 6.25037 7.76256 6.25037 7.76256 4.839 7.69535 4.48414 7.34049 4.12928 6.98563 3.76366 6.62002 3.58623 6.97487 3.4088 7.32973 3.226 7.69535 2.11706 8.03139 2.11706 8.03139 1.07533 8.23301 0.809188 7.70072 0.809188 7.70072 0.537666 7.15768 0.892526 7.15768 1.24739 7.15768 1.613 7.15768 1.34685 6.35925 1.34685 6.35925 1.07533 5.54468 1.31056 4.36854 1.31056 4.36854 1.613 3.39402 1.1916 3.31639 0.770207 3.23877 0.336041 3.15879-1.07533 2.85635-1.07533 2.85635-2.15066 2.31869-2.15066 2.67355-2.15066 3.0284-2.15066 3.39402-2.50552 3.39402-2.86038 3.39402-3.226 3.39402-2.87114 2.50687-2.51628 1.61972-2.15066 0.705687-2.86038 0.528257-3.5701 0.350827-4.30133 0.168021-4.30133 0.70031-4.30133 1.2326-4.30133 1.78102-4.65619 1.78102-5.01105 1.78102-5.37666 1.78102-5.37666 1.42616-5.37666 1.0713-5.37666 0.705687-6.851 0.152818-6.851 0.152818-8.60266 0.168021-10.0401 1.69581-10.0401 1.69581-11.291 3.39402-12.4335 3.96529-12.4335 3.96529-13.4417 3.93168-14.2818 3.19239-14.2818 3.19239-15.0547 2.31869-15.5869 2.14126-16.1192 1.96383-16.6677 1.78102-15.9851 1.43243-15.3016 1.08551-14.6178 0.739291-14.2373 0.54592-13.8568 0.352549-13.4648 0.153319-9.60071-1.68635-3.94177-1.69128 0 0Z" fill="#323337" transform="matrix(1 0 0 1.00127 705.864 207.203)"/><path d="M0 0C0.702789-0.00762394 1.40558-0.0152479 2.12966-0.0231028 3.95883 0.0919515 5.15721 0.37962 6.78804 1.17614 6.61061 1.70843 6.43318 2.24072 6.25037 2.78914 6.25037 2.43428 6.25037 2.07942 6.25037 1.71381 5.00836 1.53638 3.76635 1.35895 2.48671 1.17614 2.48671 1.70843 2.48671 2.24072 2.48671 2.78914 2.13185 2.78914 1.77699 2.78914 1.41137 2.78914 1.41137 2.43428 1.41137 2.07942 1.41137 1.71381-0.062966 1.16094-0.062966 1.16094-1.81462 1.17614-3.25207 2.70393-3.25207 2.70393-4.50295 4.40214-5.64549 4.97341-5.64549 4.97341-6.65362 4.93981-7.49372 4.20052-7.49372 4.20052-8.26662 3.32681-8.79891 3.14938-9.3312 2.97195-9.87962 2.78914-9.19702 2.44055-8.51357 2.09363-7.82976 1.74742-7.44926 1.55404-7.06876 1.36067-6.67672 1.16144-4.38924 0.0723725-2.51452 0.0123503 0 0Z" fill="#37383B" transform="matrix(1 0 0 1.00127 699.076 206.194)"/><path d="M0 0C3.73691 0.347619 7.19493 1.53787 10.7533 2.68833 10.221 2.86576 9.68875 3.04319 9.14033 3.226 9.14033 3.58086 9.14033 3.93572 9.14033 4.30133 8.25318 4.47876 7.36603 4.65619 6.45199 4.839 6.45199 4.12928 6.45199 3.41956 6.45199 2.68833 6.09713 2.68833 5.74228 2.68833 5.37666 2.68833 5.24359 3.12082 5.11052 3.5533 4.97341 3.99889 4.30133 5.37666 4.30133 5.37666 3.15879 5.81352 2.82611 5.84678 2.49343 5.88005 2.15066 5.91433 2.50552 5.02718 2.86038 4.14003 3.226 3.226 2.87114 3.04857 2.51628 2.87114 2.15066 2.68833 1.97324 3.04319 1.79581 3.39805 1.613 3.76366 1.613 3.4088 1.613 3.05394 1.613 2.68833 0.725849 2.5109-0.1613 2.33347-1.07533 2.15066-0.720473 1.44095-0.365613 0.731226 0 0Z" fill="#2B2D30" transform="matrix(1 0 0 1.00127 639.193 241.288)"/><path d="M0 0C-0.291951 2.04366-1.11446 2.99726-2.68833 4.30133-3.06537 4.39004-3.44241 4.47876-3.83087 4.57016-4.16355 4.65888-4.49623 4.74759-4.839 4.839-5.43493 5.85151-5.43493 5.85151-5.91433 6.98966-6.72083 7.93058-6.72083 7.93058-7.52733 8.60266-7.88219 8.60266-8.23705 8.60266-8.60266 8.60266-8.78009 8.2478-8.95752 7.89294-9.14033 7.52733-9.67262 7.79347-9.67262 7.79347-10.2157 8.06499-10.5705 7.71013-10.9254 7.35527-11.291 6.98966-10.1935 6.22761-9.09573 5.46598-7.99778 4.70458-7.69144 4.4918-7.3851 4.27903-7.06947 4.0598-6.45329 3.63268-5.83634 3.20667-5.21862 2.78179-4.60673 2.36079-3.9966 1.93723-3.38824 1.51114-1.19616 0-1.19616 0 0 0Z" fill="#2C2F30" transform="matrix(1 0 0 1.00127 576.287 253.131)"/><path d="M0 0C-0.17743 0.53229-0.35486 1.06458-0.537666 1.613-1.77968 1.79043-3.02168 1.96786-4.30133 2.15066-4.47876 2.86038-4.65619 3.5701-4.839 4.30133-6.27277 3.94289-7.70655 3.58444-9.14033 3.226-9.14033 2.51628-9.14033 1.80656-9.14033 1.07533-8.02173 0.789217-6.9012 0.510612-5.77991 0.235229-5.15614 0.0792848-4.53236-0.0766594-3.88968-0.237329-2.30072-0.511751-1.48162-0.553776 0 0ZM-7.52733 3.76366C-7.52733 5.37666-7.52733 5.37666-7.52733 5.37666Z" fill="#2F3334" transform="matrix(1 0 0 1.00127 611.773 240.749)"/><path d="M0 0C2.31856 1.27294 4.4826 2.51098 6.45199 4.30133 6.45199 4.65619 6.45199 5.01105 6.45199 5.37666 6.09713 5.37666 5.74228 5.37666 5.37666 5.37666 5.37666 6.26381 5.37666 7.15096 5.37666 8.06499 4.84437 7.35527 4.31208 6.64555 3.76366 5.91433 3.23137 6.26919 2.69908 6.62405 2.15066 6.98966 2.15066 6.6348 2.15066 6.27994 2.15066 5.91433 1.79581 5.91433 1.44095 5.91433 1.07533 5.91433 0.997707 5.33768 0.920081 4.76103 0.840103 4.16691 0.62504 2.73316 0.389314 1.39041 0 0Z" fill="#1F2326" transform="matrix(1 0 0 1.00127 725.22 252.055)"/><path d="M0 0C0.709719 0.53229 1.41944 1.06458 2.15066 1.613 1.79581 2.85501 1.44095 4.09702 1.07533 5.37666 0.543043 5.37666 0.0107533 5.37666-0.537666 5.37666-1.32776 6.32689-1.32776 6.32689-1.98264 7.52733-2.2176 7.92654-2.45256 8.32576-2.69463 8.73708-2.86998 9.04758-3.04533 9.35808-3.226 9.67799-3.75829 8.96827-4.29058 8.25855-4.839 7.52733-5.37129 7.79347-5.37129 7.79347-5.91433 8.06499-7.36369 7.97477-8.77689 7.73618-10.2157 7.52733-10.2157 7.3499-10.2157 7.17247-10.2157 6.98966-7.55421 6.6348-4.89276 6.27994-2.15066 5.91433-1.44095 3.9626-0.731226 2.01087 0 0Z" fill="#474B4E" transform="matrix(1 0 0 1.00127 672.529 243.441)"/><path d="M0 0C1.06458 0 2.12916 0 3.226 0 3.12619 0.576647 3.02639 1.15329 2.92356 1.74742 2.72572 3.44317 2.66432 4.35412 3.226 5.91433 2.33885 6.09176 1.4517 6.26919 0.537666 6.45199 0.537666 6.09713 0.537666 5.74228 0.537666 5.37666-0.349483 5.55409-1.23663 5.73152-2.15066 5.91433-1.58679 4.50463-1.26388 3.87458 0.0672083 3.09158 0.399889 2.95851 0.73257 2.82544 1.07533 2.68833 0.720473 1.80118 0.365613 0.914033 0 0Z" fill="#272B2E" transform="matrix(1 0 0 1.00127 683.282 217.062)"/><path d="M0 0C0.35486 0.17743 0.709719 0.35486 1.07533 0.537666 0.720473 1.42482 0.365613 2.31196 0 3.226-0.35486 3.226-0.709719 3.226-1.07533 3.226-1.07533 3.58086-1.07533 3.93572-1.07533 4.30133-1.96248 4.47876-2.84963 4.65619-3.76366 4.839-3.79693 5.17168-3.8302 5.50436-3.86448 5.84712-4.30133 6.98966-4.30133 6.98966-5.6791 7.66174-6.11158 7.79482-6.54407 7.92789-6.98966 8.06499-5.65581 4.17459-3.30765 2.2263 0 0Z" fill="#1C2324" transform="matrix(1 0 0 1.00127 558.544 424.864)"/><path d="M0 0C1.33072 0.53229 1.33072 0.53229 2.68833 1.07533 2.15604 1.25276 1.62375 1.43019 1.07533 1.613 1.07533 1.96786 1.07533 2.32272 1.07533 2.68833 1.43019 2.86576 1.78505 3.04319 2.15066 3.226 1.63501 3.41209 1.63501 3.41209 1.10894 3.60194-0.110225 4.20321-0.110225 4.20321-0.369646 5.48798-0.425092 5.95026-0.480539 6.41255-0.537666 6.88885-0.915762 9.26398-1.48411 10.6244-3.226 12.3663-2.84273 9.60855-2.11434 7.02528-1.31056 4.36854-1.18477 3.94714-1.05897 3.52575-0.929364 3.09158-0.621308 2.06053-0.310894 1.03019 0 0Z" fill="#494B4E" transform="matrix(1 0 0 1.00127 677.905 226.214)"/><path d="M0 0C0.877094 2.18446 0.161132 3.87175-0.504062 6.04874-0.708522 6.72797-0.912982 7.40719-1.12364 8.107-1.28513 8.62543-1.44662 9.14385-1.613 9.67799-2.14529 8.96827-2.67758 8.25855-3.226 7.52733-2.87114 6.99504-2.51628 6.46275-2.15066 5.91433-1.9409 4.84453-1.75708 3.76893-1.613 2.68833-1.96786 2.5109-2.32272 2.33347-2.68833 2.15066-2.01334 0.800676-1.34382 0.606888 0 0Z" fill="#2B2F31" transform="matrix(1 0 0 1.00127 711.778 236.442)"/><path d="M0 0C0.702789-0.00762394 1.40558-0.0152479 2.12966-0.0231028 3.95883 0.0919515 5.15721 0.37962 6.78804 1.17614 6.61061 1.70843 6.43318 2.24072 6.25037 2.78914 6.25037 2.43428 6.25037 2.07942 6.25037 1.71381 5.00836 1.53638 3.76635 1.35895 2.48671 1.17614 2.48671 1.70843 2.48671 2.24072 2.48671 2.78914 2.13185 2.78914 1.77699 2.78914 1.41137 2.78914 1.41137 2.43428 1.41137 2.07942 1.41137 1.71381 1.08701 1.68124 0.762646 1.64866 0.428453 1.6151-0.216117 1.54752-0.216117 1.54752-0.873708 1.47858-1.50996 1.41309-1.50996 1.41309-2.15907 1.34627-3.3328 1.18886-4.43699 0.949979-5.57829 0.638479-3.64332-0.00650936-2.0397 0.0100182 0 0Z" fill="#484949" transform="matrix(1 0 0 1.00127 699.076 206.194)"/><path d="M0 0C0.17743 0.35486 0.35486 0.709719 0.537666 1.07533 1.06996 0.897903 1.60225 0.720473 2.15066 0.537666 2.32809 0.892526 2.50552 1.24739 2.68833 1.613 1.80118 1.79043 0.914033 1.96786 0 2.15066-0.0665362 2.66078-0.133072 3.17089-0.201625 3.69646-0.537666 5.37666-0.537666 5.37666-1.613 6.45199-2.32272 6.45199-3.03244 6.45199-3.76366 6.45199-2.92651 3.94052-1.56758 2.10386 0 0Z" fill="#333638" transform="matrix(1 0 0 1.00127 684.357 213.294)"/><path d="M0 0C0 1.613 0 3.226 0 4.839-1.86729 5.77264-3.31701 5.96999-5.37666 5.91433-3.65204 3.86778-1.93159 1.85729 0 0Z" fill="#232627" transform="matrix(1 0 0 1.00127 560.157 264.437)"/><path d="M0 0C3.5486 0 7.09719 0 10.7533 0 10.221 0.17743 9.68875 0.35486 9.14033 0.537666 8.9629 0.892526 8.78547 1.24739 8.60266 1.613 8.2478 1.613 7.89294 1.613 7.52733 1.613 6.80802 1.78225 6.09066 1.96026 5.37666 2.15066 5.37666 1.61838 5.37666 1.08609 5.37666 0.537666 3.60236 0.537666 1.82807 0.537666 0 0.537666 0 0.360236 0 0.182807 0 0ZM3.76366 1.07533C4.11852 1.07533 4.47338 1.07533 4.839 1.07533 5.01643 1.60762 5.19386 2.13991 5.37666 2.68833 4.31208 3.22062 4.31208 3.22062 3.226 3.76366 3.40343 2.87651 3.58086 1.98936 3.76366 1.07533Z" fill="#323636" transform="matrix(1 0 0 1.00127 614.999 239.673)"/><path d="M0 0C0.53229 0 1.06458 0 1.613 0 1.71772 0.873247 1.81763 1.74707 1.91544 2.62112 1.97158 3.10767 2.02772 3.59421 2.08556 4.0955 2.15066 5.37666 2.15066 5.37666 1.613 6.45199 1.25814 6.45199 0.903279 6.45199 0.537666 6.45199 0.360236 6.80685 0.182807 7.16171 0 7.52733-0.411919 5.19312-0.591659 3.37623 0 1.07533 0 0.720473 0 0.365613 0 0Z" fill="#1D2326" transform="matrix(1 0 0 1.00127 708.015 236.981)"/><path d="M0 0C4.09871-0.126764 7.84224 0.0875465 11.8287 1.07533 11.8287 1.25276 11.8287 1.43019 11.8287 1.613 10.9415 1.613 10.0544 1.613 9.14033 1.613 8.9629 2.50015 8.78547 3.3873 8.60266 4.30133 8.2478 4.30133 7.89294 4.30133 7.52733 4.30133 6.92245 2.28508 6.92245 2.28508 7.52733 1.07533 7.18356 1.17514 6.83979 1.27494 6.4856 1.37777 6.11965 1.4554 5.7537 1.53302 5.37666 1.613 5.19923 1.43557 5.0218 1.25814 4.839 1.07533 4.0246 0.950632 3.20581 0.853732 2.38589 0.772895 1.94163 0.727845 1.49736 0.682794 1.03963 0.636378 0.696551 0.603803 0.353474 0.571228 0 0.537666 0 0.360236 0 0.182807 0 0Z" fill="#3E4042" transform="matrix(1 0 0 1.00127 626.827 239.673)"/><path d="M0 0C1.60788 3.21576 1.58276 4.62577 1.07533 8.06499 1.43019 8.06499 1.78505 8.06499 2.15066 8.06499 2.32809 8.59728 2.50552 9.12957 2.68833 9.67799 2.5109 10.0329 2.33347 10.3877 2.15066 10.7533 1.79581 10.7533 1.44095 10.7533 1.07533 10.7533 0.897903 11.2856 0.720473 11.8179 0.537666 12.3663 0.360236 8.28544 0.182807 4.20455 0 0Z" fill="#020B0D" transform="matrix(1 0 0 1.00127 710.165 363.493)"/><path d="M0 0C-3.37962 2.91876-3.37962 2.91876-5.37666 3.76366-5.73152 2.87651-6.08638 1.98936-6.45199 1.07533-5.78303 0.787936-5.11014 0.509661-4.43575 0.235229-4.06148 0.0792848-3.68721-0.0766594-3.30161-0.237329-1.9893-0.579775-1.2687-0.431471 0 0Z" fill="#393B3C" transform="matrix(1 0 0 1.00127 598.331 243.979)"/><path d="M0 0C0.35486 0.17743 0.709719 0.35486 1.07533 0.537666 1.07533 0.892526 1.07533 1.24739 1.07533 1.613 1.19732 1.95677 1.3193 2.30054 1.44498 2.65473 1.50042 3.02068 1.55587 3.38663 1.613 3.76366 0.840103 4.70458 0.840103 4.70458 0 5.37666-0.53229 4.84437-1.06458 4.31208-1.613 3.76366-0.604874 0.604874-0.604874 0.604874 0 0Z" fill="#071315" transform="matrix(1 0 0 1.00127 744.038 389.333)"/><path d="M0 0C0.17743 0 0.35486 0 0.537666 0 0.715096 1.24201 0.892526 2.48402 1.07533 3.76366 0.543043 3.94109 0.0107533 4.11852-0.537666 4.30133-0.715096 4.65619-0.892526 5.01105-1.07533 5.37666-1.60762 4.84437-2.13991 4.31208-2.68833 3.76366-2.25364 3.13489-1.8163 2.50794-1.37777 1.88183-1.1345 1.53252-0.891224 1.1832-0.640579 0.823301-0.429188 0.551612-0.217797 0.279922 0 0Z" fill="#2B2F30" transform="matrix(1 0 0 1.00127 551.016 273.589)"/><path d="M0 0C1.54579-0.0672083 1.54579-0.0672083 3.226 0 3.58086 0.35486 3.93572 0.709719 4.30133 1.07533 3.42939 1.61587 2.55527 2.15288 1.68021 2.68833 0.950388 3.13745 0.950388 3.13745 0.205825 3.59564-1.07533 4.30133-1.07533 4.30133-2.15066 4.30133-1.97324 3.76904-1.79581 3.23675-1.613 2.68833-1.25814 2.5109-0.903279 2.33347-0.537666 2.15066-0.187036 1.06209-0.187036 1.06209 0 0Z" fill="#262B2D" transform="matrix(1 0 0 1.00127 607.471 269.282)"/><path d="M0 0C-0.17743 0.53229-0.35486 1.06458-0.537666 1.613-1.42482 1.79043-2.31196 1.96786-3.226 2.15066-3.40343 2.68295-3.58086 3.21524-3.76366 3.76366-5.00567 3.58623-6.24768 3.4088-7.52733 3.226-5.34979 1.39686-2.8839 0 0 0Z" fill="#373A3B" transform="matrix(1 0 0 1.00127 591.879 245.594)"/><path d="M0 0C0.709719 0.53229 1.41944 1.06458 2.15066 1.613 1.79581 2.85501 1.44095 4.09702 1.07533 5.37666 0.543043 5.37666 0.0107533 5.37666-0.537666 5.37666-1.06996 5.64281-1.06996 5.64281-1.613 5.91433-1.08071 3.9626-0.54842 2.01087 0 0Z" fill="#424344" transform="matrix(1 0 0 1.00127 672.529 243.441)"/><path d="M0 0C0.709719 0.17743 1.41944 0.35486 2.15066 0.537666 1.5292 2.64108 0.884273 4.23385-0.537666 5.91433-1.1877 3.55797-1.19277 2.1619 0 0Z" fill="#22272B" transform="matrix(1 0 0 1.00127 588.653 291.892)"/><path d="M0 0C0.17743 0.709719 0.35486 1.41944 0.537666 2.15066 1.06996 1.97324 1.60225 1.79581 2.15066 1.613 1.97324 2.14529 1.79581 2.67758 1.613 3.226 0.37099 3.40343-0.871019 3.58086-2.15066 3.76366-2.15066 2.15066-2.15066 2.15066-1.07533 0.97452-0.720473 0.652928-0.365613 0.331337 0 0Z" fill="#232629" transform="matrix(1 0 0 1.00127 554.242 270.358)"/><path d="M0 0C0.53229 0.266145 0.53229 0.266145 1.07533 0.537666 0.543043 0.803811 0.543043 0.803811 0 1.07533 0 0.720473 0 0.365613 0 0ZM-0.537666 0.537666C-0.537666 1.06996-0.537666 1.60225-0.537666 2.15066-1.60225 2.68295-1.60225 2.68295-2.68833 3.226-2.86576 2.87114-3.04319 2.51628-3.226 2.15066-3.75829 2.41681-3.75829 2.41681-4.30133 2.68833-4.65619 2.33347-5.01105 1.97861-5.37666 1.613-3.52967 0.38167-2.69622 0.441731-0.537666 0.537666Z" fill="#25282A" transform="matrix(1 0 0 1.00127 570.372 258.515)"/><path d="M0 0C-0.17743 0.53229-0.35486 1.06458-0.537666 1.613-1.84823 1.41137-1.84823 1.41137-3.226 1.07533-3.40343 0.720473-3.58086 0.365613-3.76366 0-2.07889-0.561592-1.61855-0.502307 0 0ZM-4.30133 1.07533C-3.94647 1.07533-3.59161 1.07533-3.226 1.07533-3.226 1.43019-3.226 1.78505-3.226 2.15066-3.58086 2.15066-3.93572 2.15066-4.30133 2.15066-4.30133 1.79581-4.30133 1.44095-4.30133 1.07533ZM-4.839 2.15066C-4.66157 2.86038-4.48414 3.5701-4.30133 4.30133-4.65619 4.1239-5.01105 3.94647-5.37666 3.76366-5.19923 3.23137-5.0218 2.69908-4.839 2.15066ZM-6.45199 3.76366C-5.37666 4.30133-5.37666 4.30133-5.37666 4.30133Z" fill="#383C3D" transform="matrix(1 0 0 1.00127 611.773 240.749)"/><path d="M0 0C0.887149 0.17743 1.7743 0.35486 2.68833 0.537666 2.35229 1.54579 2.35229 1.54579 1.613 2.68833-0.0672083 3.36041-0.0672083 3.36041-1.613 3.76366-0.604874 1.20975-0.604874 1.20975 0 0Z" fill="#1F2527" transform="matrix(1 0 0 1.00127 540.263 289.201)"/><path d="M0 0C-0.907312 1.10894-0.907312 1.10894-2.15066 2.15066-3.62925 2.01625-3.62925 2.01625-4.839 1.613-4.66157 1.08071-4.48414 0.54842-4.30133 0-2.711-0.658068-1.61447-0.518935 0 0Z" fill="#1C2327" transform="matrix(1 0 0 1.00127 600.482 278.434)"/><path d="M0 0C0.17743 0.53229 0.35486 1.06458 0.537666 1.613-0.981278 3.1882-2.57432 4.5711-4.30133 5.91433-4.65619 5.7369-5.01105 5.55947-5.37666 5.37666-3.60236 3.60236-1.82807 1.82807 0 0Z" fill="#E8ECEE" transform="matrix(1 0 0 1.00127 603.17 275.742)"/><path d="M0 0C1.13355 1.70032 1.25716 2.42303 1.41137 4.40214 1.45157 4.88661 1.49177 5.37108 1.53319 5.87022 1.55953 6.23964 1.58586 6.60905 1.613 6.98966 0.903279 6.98966 0.19356 6.98966-0.537666 6.98966-0.360236 4.68307-0.182807 2.37648 0 0Z" fill="#292F32" transform="matrix(1 0 0 1.00127 748.34 349.496)"/><path d="M0 0C1.10264 0.0175022 2.20527 0.0350043 3.30791 0.0525065 3.30791 0.407366 3.30791 0.762226 3.30791 1.12784 2.73126 1.18329 2.15461 1.23873 1.56049 1.29586-0.37952 1.65153-1.18911 1.97457-2.60642 3.2785-1.37338 0.0725886-1.37338 0.0725886 0 0Z" fill="#25292B" transform="matrix(1 0 0 1.00127 628.358 240.158)"/><path d="M0 0C-0.0613455 0.784577-0.12993 1.56859-0.201625 2.35229-0.239051 2.78893-0.276478 3.22558-0.315039 3.67545-0.537666 4.839-0.537666 4.839-1.613 5.91433-2.3392 1.88723-2.3392 1.88723-1.41137 0.537666-0.537666 0-0.537666 0 0 0Z" fill="#1D2427" transform="matrix(1 0 0 1.00127 680.594 344.65)"/><path d="M0 0C0.35486 0.17743 0.709719 0.35486 1.07533 0.537666 0.97452 1.54579 0.97452 1.54579 0.537666 2.68833-0.840103 3.36041-0.840103 3.36041-2.15066 3.76366-2.68295 3.05394-3.21524 2.34422-3.76366 1.613-2.52505 1.03957-1.26879 0.503143 0 0Z" fill="#232A2C" transform="matrix(1 0 0 1.00127 610.697 379.105)"/><path d="M0 0C2.12916 0 4.25832 0 6.45199 0 6.27456 0.53229 6.09713 1.06458 5.91433 1.613 5.91433 1.25814 5.91433 0.903279 5.91433 0.537666 5.55947 0.537666 5.20461 0.537666 4.839 0.537666 4.66157 0.892526 4.48414 1.24739 4.30133 1.613 3.79122 1.51319 3.28111 1.41339 2.75554 1.31056 1.1298 0.921094 1.1298 0.921094 0 1.613 0 1.08071 0 0.54842 0 0Z" fill="#212527" transform="matrix(1 0 0 1.00127 613.923 240.211)"/><path d="M0 0C1.33072 0.53229 1.33072 0.53229 2.68833 1.07533 2.15604 1.25276 1.62375 1.43019 1.07533 1.613 1.07533 1.96786 1.07533 2.32272 1.07533 2.68833 1.43019 2.86576 1.78505 3.04319 2.15066 3.226 1.08609 3.75829 1.08609 3.75829 0 4.30133-0.429881 2.53404-0.589599 1.7688 0 0Z" fill="#3B3E40" transform="matrix(1 0 0 1.00127 677.905 226.214)"/><path d="M0 0C0.806499 0.739291 0.806499 0.739291 1.613 1.613 1.613 1.96786 1.613 2.32272 1.613 2.68833 0.54842 2.86576-0.51616 3.04319-1.613 3.226-1.613 2.33885-1.613 1.4517-1.613 0.537666-1.08071 0.360236-0.54842 0.182807 0 0Z" fill="#161C21" transform="matrix(1 0 0 1.00127 741.35 335.499)"/><path d="M0 0C1.06987 2.13973 1.19577 2.51453 0.873708 4.70458 0.814102 5.13429 0.754497 5.564 0.693085 6.00674 0.641797 6.3311 0.590509 6.65547 0.537666 6.98966 0.182807 6.81223-0.172053 6.6348-0.537666 6.45199-0.360236 4.32284-0.182807 2.19368 0 0Z" fill="#0A1113" transform="matrix(1 0 0 1.00127 528.434 329.038)"/><path d="M0 0C0.53229 0 1.06458 0 1.613 0 1.79043 1.06458 1.96786 2.12916 2.15066 3.226 1.61838 3.226 1.08609 3.226 0.537666 3.226 0.182807 2.87114-0.172053 2.51628-0.537666 2.15066-1.06996 2.15066-1.60225 2.15066-2.15066 2.15066-1.44095 1.79581-0.731226 1.44095 0 1.07533 0 0.720473 0 0.365613 0 0Z" fill="#21272C" transform="matrix(1 0 0 1.00127 600.482 273.589)"/><path d="M0 0C0.53229 0 1.06458 0 1.613 0 1.35921 2.28413 0.0179821 3.33348-1.613 4.839-1.08071 3.24213-0.54842 1.64526 0 0Z" fill="#1B2223" transform="matrix(1 0 0 1.00127 703.713 400.639)"/><path d="M0 0C0.35486 0.17743 0.709719 0.35486 1.07533 0.537666 0.897903 0.892526 0.720473 1.24739 0.537666 1.613 0.182807 1.613-0.172053 1.613-0.537666 1.613-0.537666 2.14529-0.537666 2.67758-0.537666 3.226-1.57939 3.02437-1.57939 3.02437-2.68833 2.68833-2.86576 2.33347-3.04319 1.97861-3.226 1.613-2.16966 1.0389-1.09224 0.50243 0 0Z" fill="#313536" transform="matrix(1 0 0 1.00127 583.276 248.824)"/><path d="M0 0C0.53229 0.53229 1.06458 1.06458 1.613 1.613 1.25814 2.32272 0.903279 3.03244 0.537666 3.76366-0.172053 3.76366-0.881773 3.76366-1.613 3.76366-0.604874 1.20975-0.604874 1.20975 0 0Z" fill="#404345" transform="matrix(1 0 0 1.00127 682.207 215.985)"/><path d="M0 0C0.35486 0.709719 0.709719 1.41944 1.07533 2.15066-0.166677 3.03781-1.40869 3.92496-2.68833 4.839-2.01669 2.97907-1.24992 1.534 0 0Z" fill="#262C2D" transform="matrix(1 0 0 1.00127 695.648 415.712)"/><path d="M0 0C0.0665362 0.34377 0.133072 0.687541 0.201625 1.04173 0.367965 1.59065 0.367965 1.59065 0.537666 2.15066 0.892526 2.32809 1.24739 2.50552 1.613 2.68833-0.250015 3.48677-0.250015 3.48677-2.15066 4.30133-1.54605 2.70342-0.955466 1.4332 0 0Z" fill="#DFE4E6" transform="matrix(1 0 0 1.00127 652.635 421.634)"/><path d="M0 0C1.33072 0.266145 1.33072 0.266145 2.68833 0.537666 2.33347 1.24739 1.97861 1.95711 1.613 2.68833 1.08071 2.5109 0.54842 2.33347 0 2.15066 0 1.44095 0 0.731226 0 0Z" fill="#222327" transform="matrix(1 0 0 1.00127 662.851 250.978)"/><path d="M0 0C1.07533 1.613 1.07533 1.613 1.07533 3.76366 0.897903 4.11852 0.720473 4.47338 0.537666 4.839 0.00537666 4.839-0.526913 4.839-1.07533 4.839-0.720473 3.24213-0.365613 1.64526 0 0Z" fill="#3B3E41" transform="matrix(1 0 0 1.00127 674.142 238.596)"/><path d="M0 0C1.68021 0.201625 1.68021 0.201625 3.226 0.537666 3.226 0.892526 3.226 1.24739 3.226 1.613 1.76957 2.34121 0.532648 2.18562-1.07533 2.15066-1.07533 1.07533-1.07533 1.07533 0 0Z" fill="#040C0F" transform="matrix(1 0 0 1.00127 595.643 461.472)"/><path d="M0 0C1.41944 0 2.83888 0 4.30133 0 2.89158 1.15801 1.80439 1.82845 0 2.15066 0 1.44095 0 0.731226 0 0Z" fill="#1A2224" transform="matrix(1 0 0 1.00127 609.084 457.704)"/><path d="M0 0C0.321592 0.17743 0.643183 0.35486 0.97452 0.537666 2.17963 1.1871 2.17963 1.1871 3.76366 1.07533 3.23137 1.87377 3.23137 1.87377 2.68833 2.68833 1.80118 2.5109 0.914033 2.33347 0 2.15066 0 1.44095 0 0.731226 0 0Z" fill="#090F15" transform="matrix(1 0 0 1.00127 621.988 449.09)"/><path d="M0 0C0.17743 0.35486 0.35486 0.709719 0.537666 1.07533-0.750095 2.6342-1.78099 2.95807-3.76366 3.226-1.20975 0.604874-1.20975 0.604874 0 0Z" fill="#060E10" transform="matrix(1 0 0 1.00127 609.622 427.556)"/><path d="M0 0C1.07921 0.154173 2.15529 0.332636 3.226 0.537666 2.51628 1.06996 1.80656 1.60225 1.07533 2.15066 0.543043 1.61838 0.0107533 1.08609-0.537666 0.537666-0.360236 0.360236-0.182807 0.182807 0 0ZM0 2.15066C0.798434 2.68295 0.798434 2.68295 1.613 3.226 1.08071 3.226 0.54842 3.226 0 3.226 0 2.87114 0 2.51628 0 2.15066Z" fill="#272A2C" transform="matrix(1 0 0 1.00127 716.08 248.824)"/><path d="M0 0C-0.749144 1.81043-1.60167 2.68078-3.226 3.76366-3.40343 3.23137-3.58086 2.69908-3.76366 2.15066-1.20975 0-1.20975 0 0 0Z" fill="#2D3136" transform="matrix(1 0 0 1.00127 729.521 309.658)"/><path d="M0 0C1.38012 2.07018 0.985482 3.00324 0.537666 5.37666 0.182807 5.19923-0.172053 5.0218-0.537666 4.839-0.360236 3.24213-0.182807 1.64526 0 0Z" fill="#272B2F" transform="matrix(1 0 0 1.00127 639.731 306.966)"/><path d="M0 0C0.35486 0 0.709719 0 1.07533 0 0.897903 0.709719 0.720473 1.41944 0.537666 2.15066-0.704343 2.32809-1.94635 2.50552-3.226 2.68833-2.79351 2.34456-2.36103 2.00079-1.91544 1.6466-0.927447 0.857021-0.927447 0.857021 0 0Z" fill="#2A2E30" transform="matrix(1 0 0 1.00127 700.487 301.583)"/><path d="M0 0C-0.17743 0.709719-0.35486 1.41944-0.537666 2.15066-2.15066 2.15066-2.15066 2.15066-3.76366 1.613-1.20975 0-1.20975 0 0 0Z" fill="#3A3D3F" transform="matrix(1 0 0 1.00127 580.05 250.978)"/><path d="M0 0C1.69965 0.736514 2.14674 1.06945 3.226 2.68833 2.16142 2.68833 1.09684 2.68833 0 2.68833 0 1.80118 0 0.914033 0 0Z" fill="#202428" transform="matrix(1 0 0 1.00127 580.05 250.978)"/><path d="M0 0C1.06458 0.266145 1.06458 0.266145 2.15066 0.537666 2.15066 0.892526 2.15066 1.24739 2.15066 1.613 1.26352 1.96786 0.376366 2.32272-0.537666 2.68833-0.360236 1.80118-0.182807 0.914033 0 0Z" fill="#071215" transform="matrix(1 0 0 1.00127 579.513 436.17)"/><path d="M0 0C0.537666 1.07533 0.537666 1.07533 0.201625 2.15066-0.748781 3.53307-1.6538 3.80485-3.226 4.30133-2.16142 2.88189-1.09684 1.46245 0 0Z" fill="#D2D8DB" transform="matrix(1 0 0 1.00127 735.436 409.791)"/><path d="M0 0C0.53229 0 1.06458 0 1.613 0 1.68021 1.54579 1.68021 1.54579 1.613 3.226 1.25814 3.58086 0.903279 3.93572 0.537666 4.30133 0.360236 2.88189 0.182807 1.46245 0 0Z" fill="#171C1F" transform="matrix(1 0 0 1.00127 708.552 356.494)"/><path d="M0 0C0.232877 0.515656 0.232877 0.515656 0.470458 1.04173 0.98298 2.23242 0.98298 2.23242 2.15066 2.68833 1.08609 3.04319 0.0215066 3.39805-1.07533 3.76366-0.720473 2.52165-0.365613 1.27965 0 0Z" fill="#2E3336" transform="matrix(1 0 0 1.00127 535.424 298.353)"/><path d="M0 0C0.35486 0.709719 0.709719 1.41944 1.07533 2.15066 0.543043 1.61838 0.0107533 1.08609-0.537666 0.537666-0.360236 0.360236-0.182807 0.182807 0 0ZM-2.68833 0.537666C-1.35761 1.06996-1.35761 1.06996 0 1.613 0 1.96786 0 2.32272 0 2.68833-1.33072 2.15604-1.33072 2.15604-2.68833 1.613-2.68833 1.25814-2.68833 0.903279-2.68833 0.537666Z" fill="#1B2024" transform="matrix(1 0 0 1.00127 710.165 277.895)"/><path d="M0 0C1.06458 0.53229 2.12916 1.06458 3.226 1.613 3.04857 2.14529 2.87114 2.67758 2.68833 3.226 2.33347 3.226 1.97861 3.226 1.613 3.226 1.613 2.87114 1.613 2.51628 1.613 2.15066 1.08071 1.97324 0.54842 1.79581 0 1.613 0 1.08071 0 0.54842 0 0Z" fill="#2E3236" transform="matrix(1 0 0 1.00127 725.22 252.055)"/><path d="M0 0C1.86301 0.798434 1.86301 0.798434 3.76366 1.613 3.4088 1.96786 3.05394 2.32272 2.68833 2.68833 1.35761 2.15604 1.35761 2.15604 0 1.613 0 1.08071 0 0.54842 0 0Z" fill="#323333" transform="matrix(1 0 0 1.00127 656.399 247.209)"/><path d="M0 0C0.17743 0.53229 0.35486 1.06458 0.537666 1.613 0.00537666 2.41143 0.00537666 2.41143-0.537666 3.226-0.892526 3.226-1.24739 3.226-1.613 3.226-1.613 2.33885-1.613 1.4517-1.613 0.537666-1.08071 0.360236-0.54842 0.182807 0 0Z" fill="#282C2F" transform="matrix(1 0 0 1.00127 714.467 227.829)"/></g></svg>