<?xml version="1.0" encoding="UTF-8"?>
<svg version="1.1" xmlns="http://www.w3.org/2000/svg" width="677" height="678">
<path d="M0 0 C223.41 0 446.82 0 677 0 C677 223.74 677 447.48 677 678 C453.59 678 230.18 678 0 678 C0 454.26 0 230.52 0 0 Z " fill="#FEFEFE" transform="translate(0,0)"/>
<path d="M0 0 C0.93392578 0.5259375 0.93392578 0.5259375 1.88671875 1.0625 C8.02827225 4.89930566 11.59587313 10.68115466 14.375 17.25 C16.23145753 28.38874518 14.42433995 36.86288849 10.6640625 47.265625 C8.92388642 52.09295008 7.52592247 56.98578851 6.1875 61.9375 C5.87776245 63.08255005 5.87776245 63.08255005 5.56176758 64.25073242 C5.27402466 65.31578003 5.27402466 65.31578003 4.98046875 66.40234375 C4.3767151 68.61771074 3.72611083 70.82166751 3 73 C3.55945313 73.02578125 4.11890625 73.0515625 4.6953125 73.078125 C19.62910138 74.1345345 34.98089199 79.51763937 46 90 C46 90.66 46 91.32 46 92 C46.66 92 47.32 92 48 92 C54.49177381 99.19324249 58.86525905 106.8328584 62 116 C62.433125 117.2375 62.86625 118.475 63.3125 119.75 C67.04244572 137.63179861 62.29367757 157.89840924 52.6484375 173.15234375 C45.62179696 183.60641743 37.63304888 193.00650457 28.046875 201.1796875 C25.92568381 202.83932343 25.92568381 202.83932343 25 205 C25.71285156 205.27199219 26.42570312 205.54398438 27.16015625 205.82421875 C49.74657928 215.17568138 64.58129123 235.13490565 74.28125 256.87109375 C75.33480057 259.55684956 76.20492953 262.22685567 77 265 C77.29777344 266.03382813 77.59554688 267.06765625 77.90234375 268.1328125 C81.71229283 283.8291004 81.74096451 302.29574275 78 318 C77.84402344 318.66483398 77.68804688 319.32966797 77.52734375 320.01464844 C70.83425544 347.89012179 56.49494225 370.26549495 37 391 C36.46503906 391.5878125 35.93007813 392.175625 35.37890625 392.78125 C14.83179776 414.50687095 -13.90213417 428.37410435 -41.64428711 438.10546875 C-43.99547248 438.94602284 -43.99547248 438.94602284 -46.09594727 440.08984375 C-49.17100573 441.55975245 -51.65258814 441.35235914 -55 441 C-58.89658058 438.96700143 -59.81242441 437.49451747 -61.375 433.375 C-61.59898518 429.30593598 -60.14419092 427.43591272 -57.5 424.4375 C-55.68833187 422.5947424 -53.86172334 420.79031955 -52 419 C-30.21293735 397.71989731 -13.49899444 374.21453326 -4 345 C-3.64164062 343.99066406 -3.28328125 342.98132813 -2.9140625 341.94140625 C4.9404292 318.76179728 7.21185234 289.229366 -2.77734375 266.40234375 C-8.96865847 254.23730046 -16.95334563 244.17642887 -30.06640625 239.21875 C-35.25542093 237.79308132 -40.65106937 237.41651509 -46 237 C-46.19722656 238.54880859 -46.19722656 238.54880859 -46.3984375 240.12890625 C-46.92770539 243.53477951 -47.64869293 246.63928004 -48.625 249.9375 C-48.98464844 251.16210938 -49.34429687 252.38671875 -49.71484375 253.6484375 C-49.91835449 254.33518555 -50.12186523 255.02193359 -50.33154297 255.72949219 C-51.06639076 258.22550549 -51.78594076 260.72564184 -52.50390625 263.2265625 C-57.11027348 279.22252435 -62.02123641 295.11691122 -67 311 C-66.34 310.67 -65.68 310.34 -65 310 C-53.25833211 309.02552144 -43.09176794 310.68198494 -33.78515625 318.23046875 C-27.53355373 324.42735265 -24.01847477 331.47059413 -23.625 340.25 C-23.82687086 349.00169571 -27.0406086 355.89806722 -33.00390625 362.24609375 C-36.32619387 365.16528581 -39.99114173 367.17264058 -44 369 C-44.75925781 369.36480469 -45.51851563 369.72960937 -46.30078125 370.10546875 C-54.39021302 372.78633688 -63.82830246 371.94982068 -71.5 368.5 C-72.3765625 368.0359375 -73.253125 367.571875 -74.15625 367.09375 C-77.95904167 365.63113782 -80.94175527 365.82657074 -85 366 C-85.31114746 366.58265625 -85.62229492 367.1653125 -85.94287109 367.765625 C-98.7355696 391.65158831 -112.07132658 412.52090104 -131 432 C-131.58112549 432.59941406 -132.16225098 433.19882812 -132.76098633 433.81640625 C-154.69059596 456.12406046 -184.2643014 471.05556153 -215 476 C-215.95261719 476.18433594 -216.90523438 476.36867188 -217.88671875 476.55859375 C-239.04407597 479.55831943 -259.36267215 475.08867617 -276.94140625 462.97265625 C-286.35076794 455.25841621 -292.99391933 443.7687188 -294.2421875 431.6484375 C-294.69176036 423.10655317 -291.71577652 415.38141026 -286.55859375 408.6015625 C-280.81061773 402.69512097 -274.59662359 399.85805552 -266.4375 399.5625 C-259.14905375 399.63763862 -254.48793067 401.19928784 -249 406 C-245.47687956 409.80822845 -242.67445441 413.91678535 -239.9375 418.3125 C-237.58410273 421.57688977 -235.52835439 423.05388565 -232 425 C-229.20488454 425.36445551 -226.89587609 425.52856319 -224.125 425.4375 C-223.4131958 425.42283691 -222.7013916 425.40817383 -221.96801758 425.39306641 C-216.6757328 425.20243002 -212.62676525 424.49864325 -208 422 C-207.17628906 421.60941406 -206.35257813 421.21882813 -205.50390625 420.81640625 C-193.30148248 414.70654016 -184.16552802 405.78899083 -176 395 C-175.48179687 394.35804688 -174.96359375 393.71609375 -174.4296875 393.0546875 C-169.25078045 386.5173786 -165.20747404 379.18075569 -161 372 C-161.72703125 372.19335938 -162.4540625 372.38671875 -163.203125 372.5859375 C-164.20859375 372.84632813 -165.2140625 373.10671875 -166.25 373.375 C-167.22453125 373.63023437 -168.1990625 373.88546875 -169.203125 374.1484375 C-180.20390154 376.61568985 -190.82539914 377.40473056 -202.0625 377.375 C-202.83590729 377.37445618 -203.60931458 377.37391235 -204.40615845 377.37335205 C-216.33306196 377.33480605 -227.56620575 376.67243453 -239 373 C-240.01102783 372.68651611 -240.01102783 372.68651611 -241.04248047 372.36669922 C-261.43611997 365.87361342 -278.50460418 354.62575626 -294 340 C-294.67546875 339.37738281 -295.3509375 338.75476563 -296.046875 338.11328125 C-312.97713719 321.96181112 -324.78863758 299.85125357 -330.8125 277.375 C-331.0074707 276.64821045 -331.20244141 275.9214209 -331.40332031 275.17260742 C-334.56503801 262.54385935 -335.40832173 249.95316138 -335.375 237 C-335.37478851 236.23608948 -335.37457703 235.47217896 -335.37435913 234.68511963 C-335.33883536 221.77096624 -334.21845525 209.54853752 -331 197 C-330.81808105 196.25733887 -330.63616211 195.51467773 -330.44873047 194.74951172 C-324.69381039 171.67325934 -313.85038653 148.59316688 -299 130 C-298.38640625 129.1853125 -297.7728125 128.370625 -297.140625 127.53125 C-286.40335173 113.71429369 -273.41229043 100.92744882 -259 91 C-258.39462402 90.57203125 -257.78924805 90.1440625 -257.16552734 89.703125 C-221.50239724 64.6498436 -175.96374626 51.74725425 -132.4453125 58.90625 C-127.19963476 59.96359098 -122.09274534 61.36431859 -117 63 C-116.26700684 63.22993652 -115.53401367 63.45987305 -114.77880859 63.69677734 C-107.08475936 66.17493818 -100.14610115 69.38971619 -93.125 73.375 C-87.27923805 76.68037771 -82.69694128 78.12974488 -76 77 C-74.00002942 76.66649017 -72.0000323 76.3331395 -70 76 C-69.56300781 74.68902344 -69.56300781 74.68902344 -69.1171875 73.3515625 C-68.50230469 71.50691406 -68.50230469 71.50691406 -67.875 69.625 C-67.65253601 68.95710953 -67.43007202 68.28921906 -67.2008667 67.60108948 C-65.96424154 63.88915526 -64.72510209 60.17809056 -63.48144531 56.46850586 C-61.18121422 49.59966068 -58.89797511 42.72987709 -56.734375 35.81640625 C-56.39535156 34.74970703 -56.05632812 33.68300781 -55.70703125 32.58398438 C-55.09143445 30.64045733 -54.4887768 28.69275917 -53.90234375 26.74023438 C-50.11050196 14.88856448 -42.25289061 5.12010438 -31.6640625 -1.44921875 C-21.69958134 -6.16662262 -9.365139 -5.79837527 0 0 Z " fill="#0E171B" transform="translate(465,116)"/>
<path d="M0 0 C9.90057675 6.79787632 15.09672377 15.2766093 18.48046875 26.703125 C18.70605469 27.38375 18.93164062 28.064375 19.1640625 28.765625 C22.97063422 42.20676101 20.43705524 58.09532813 18.48046875 71.703125 C18.36751465 72.51185059 18.25456055 73.32057617 18.13818359 74.15380859 C12.34326225 114.34589358 2.76350751 173.81103978 -31.51953125 199.703125 C-34.10959635 201.2683442 -36.72245913 202.5547336 -39.51953125 203.703125 C-40.24269531 204.05890625 -40.96585937 204.4146875 -41.7109375 204.78125 C-50.1322478 207.54540748 -62.35476789 207.05413157 -70.2890625 203.1484375 C-84.79723476 193.74734514 -92.03719138 179.53997044 -95.63671875 162.96484375 C-96.94089993 155.38546257 -96.85491455 147.75804607 -96.83520508 140.08959961 C-96.8320586 137.53780803 -96.85552735 134.98719487 -96.88085938 132.43554688 C-96.92303833 121.78516755 -95.81062354 112.1029067 -93.51953125 101.703125 C-93.05808576 99.20061445 -92.59714469 96.69801083 -92.13671875 94.1953125 C-90.51979585 86.21110201 -88.22479532 78.54442031 -85.64453125 70.828125 C-85.40953918 70.12056061 -85.17454712 69.41299622 -84.93243408 68.68399048 C-78.73742011 50.21303866 -70.65121624 31.35344023 -57.51953125 16.703125 C-57.07287109 16.20039063 -56.62621094 15.69765625 -56.16601562 15.1796875 C-41.65222562 -0.92492387 -20.71279853 -11.83588487 0 0 Z " fill="#FDFDFD" transform="translate(319.51953125,232.296875)"/>
<path d="M0 0 C6.19049884 1.20790221 9.55225416 4.96610111 13 10 C15.57297794 16.97957235 14.96367641 26.43568644 12.4375 33.3125 C6.98533206 44.9412498 -2.3226215 52.9666472 -14 58 C-14.99 58 -15.98 58 -17 58 C-14.04148792 45.50442102 -10.50193848 33.20816974 -6.85498047 20.8984375 C-6.05147261 18.17449539 -5.25937894 15.44758059 -4.47265625 12.71875 C-4.24312256 11.925896 -4.01358887 11.13304199 -3.77709961 10.31616211 C-3.35253449 8.84886123 -2.93006214 7.38095265 -2.51000977 5.91235352 C-1.11270488 1.11270488 -1.11270488 1.11270488 0 0 Z " fill="#F9F9F9" transform="translate(453,239)"/>
<path d="M0 0 C0.64582031 0.39703125 1.29164063 0.7940625 1.95703125 1.203125 C5.67250619 3.67489359 8.38365585 6.33711818 11 10 C10.67 10.66 10.34 11.32 10 12 C7.625 12.125 7.625 12.125 5 12 C4.34 11.34 3.68 10.68 3 10 C2.67 10.66 2.34 11.32 2 12 C-0.0625 12.625 -0.0625 12.625 -2 13 C-2.495 12.01 -2.495 12.01 -3 11 C-2.34 11 -1.68 11 -1 11 C-1.495 9.515 -1.495 9.515 -2 8 C-1.5625 5.8125 -1.5625 5.8125 -1 4 C-1.78375 3.855625 -2.5675 3.71125 -3.375 3.5625 C-6 3 -6 3 -8 2 C-8 2.66 -8 3.32 -8 4 C-8.66 4 -9.32 4 -10 4 C-9.34 2.35 -8.68 0.7 -8 -1 C-9.32 -1.33 -10.64 -1.66 -12 -2 C-12 -1.01 -12 -0.02 -12 1 C-12.66 1 -13.32 1 -14 1 C-14 0.34 -14 -0.32 -14 -1 C-14.66 -1 -15.32 -1 -16 -1 C-15.505 0.98 -15.505 0.98 -15 3 C-15.66 3 -16.32 3 -17 3 C-17.33 4.32 -17.66 5.64 -18 7 C-17.34 7 -16.68 7 -16 7 C-15.505 9.97 -15.505 9.97 -15 13 C-16.258125 13.103125 -17.51625 13.20625 -18.8125 13.3125 C-22.06272095 13.62082869 -22.06272095 13.62082869 -24.5625 15.5625 C-26 17 -26 17 -29.4375 17.125 C-30.613125 17.08375 -31.78875 17.0425 -33 17 C-33.763125 17.20625 -34.52625 17.4125 -35.3125 17.625 C-35.869375 17.74875 -36.42625 17.8725 -37 18 C-37.66 17.34 -38.32 16.68 -39 16 C-40.62950412 20.12168689 -41.26264601 22.70700357 -40 27 C-41.65 27.33 -43.3 27.66 -45 28 C-45 27.34 -45 26.68 -45 26 C-46.65 26.33 -48.3 26.66 -50 27 C-49.505 26.1028125 -49.505 26.1028125 -49 25.1875 C-47.79212012 22.94613529 -47.79212012 22.94613529 -48 20 C-48.99 20.33 -49.98 20.66 -51 21 C-48.05415374 11.57329197 -39.97465082 3.65459741 -31.7265625 -1.390625 C-21.73466654 -6.10440981 -9.39658744 -5.87048465 0 0 Z M-45 18 C-45.33 18.99 -45.66 19.98 -46 21 C-45.34 21 -44.68 21 -44 21 C-44.33 20.01 -44.66 19.02 -45 18 Z " fill="#2D2F32" transform="translate(465,116)"/>
<path d="M0 0 C2.31 0.33 4.62 0.66 7 1 C7.33 2.65 7.66 4.3 8 6 C7.34 6 6.68 6 6 6 C5.67 7.32 5.34 8.64 5 10 C5.66 10 6.32 10 7 10 C7.33 11.98 7.66 13.96 8 16 C6.741875 16.103125 5.48375 16.20625 4.1875 16.3125 C0.93727905 16.62082869 0.93727905 16.62082869 -1.5625 18.5625 C-3 20 -3 20 -6.4375 20.125 C-7.613125 20.08375 -8.78875 20.0425 -10 20 C-12.31036915 20.42854995 -12.31036915 20.42854995 -14 21 C-14.66 20.01 -15.32 19.02 -16 18 C-15.360625 17.896875 -14.72125 17.79375 -14.0625 17.6875 C-13.0415625 17.3471875 -13.0415625 17.3471875 -12 17 C-11.67 16.01 -11.34 15.02 -11 14 C-10.34 14 -9.68 14 -9 14 C-9.66 13.34 -10.32 12.68 -11 12 C-10.34 12 -9.68 12 -9 12 C-9 11.34 -9 10.68 -9 10 C-8.34 9.67 -7.68 9.34 -7 9 C-6.67 8.34 -6.34 7.68 -6 7 C-5.01 6.67 -4.02 6.34 -3 6 C-2.67 5.01 -2.34 4.02 -2 3 C-1.01 2.67 -0.02 2.34 1 2 C0.67 1.34 0.34 0.68 0 0 Z " fill="#292C30" transform="translate(442,113)"/>
<path d="M0 0 C1.35807666 0.72635362 2.69383418 1.49647754 4 2.3125 C4.64582031 2.70953125 5.29164063 3.1065625 5.95703125 3.515625 C9.67250619 5.98739359 12.38365585 8.64961818 15 12.3125 C14.67 12.9725 14.34 13.6325 14 14.3125 C11.625 14.4375 11.625 14.4375 9 14.3125 C8.34 13.6525 7.68 12.9925 7 12.3125 C6.67 12.9725 6.34 13.6325 6 14.3125 C3.9375 14.9375 3.9375 14.9375 2 15.3125 C1.505 14.3225 1.505 14.3225 1 13.3125 C1.66 13.3125 2.32 13.3125 3 13.3125 C2.505 11.8275 2.505 11.8275 2 10.3125 C2.4375 8.125 2.4375 8.125 3 6.3125 C2.21625 6.168125 1.4325 6.02375 0.625 5.875 C-2 5.3125 -2 5.3125 -4 4.3125 C-4 4.9725 -4 5.6325 -4 6.3125 C-4.66 6.3125 -5.32 6.3125 -6 6.3125 C-5.34 4.6625 -4.68 3.0125 -4 1.3125 C-5.32 0.9825 -6.64 0.6525 -8 0.3125 C-8 1.3025 -8 2.2925 -8 3.3125 C-8.66 3.3125 -9.32 3.3125 -10 3.3125 C-10 2.6525 -10 1.9925 -10 1.3125 C-12.74210981 0.28422423 -12.74210981 0.28422423 -16 0.3125 C-18.67348492 3.15401217 -18.67348492 3.15401217 -21 6.3125 C-23.125 7.375 -23.125 7.375 -25 7.3125 C-26.5625 5.9375 -26.5625 5.9375 -28 4.3125 C-28.99 3.9825 -29.98 3.6525 -31 3.3125 C-29.730447 2.66415346 -28.45930294 2.01892185 -27.1875 1.375 C-26.47980469 1.01535156 -25.77210938 0.65570313 -25.04296875 0.28515625 C-17.85626559 -3.136429 -7.33126622 -3.14559519 0 0 Z " fill="#323337" transform="translate(461,113.6875)"/>
<path d="M0 0 C1.30710937 -0.01417969 2.61421875 -0.02835937 3.9609375 -0.04296875 C7.36298963 0.1710196 9.59183747 0.70605189 12.625 2.1875 C12.295 3.1775 11.965 4.1675 11.625 5.1875 C11.625 4.5275 11.625 3.8675 11.625 3.1875 C9.315 2.8575 7.005 2.5275 4.625 2.1875 C4.625 3.1775 4.625 4.1675 4.625 5.1875 C3.965 5.1875 3.305 5.1875 2.625 5.1875 C2.625 4.5275 2.625 3.8675 2.625 3.1875 C-0.11710981 2.15922423 -0.11710981 2.15922423 -3.375 2.1875 C-6.04848492 5.02901217 -6.04848492 5.02901217 -8.375 8.1875 C-10.5 9.25 -10.5 9.25 -12.375 9.1875 C-13.9375 7.8125 -13.9375 7.8125 -15.375 6.1875 C-16.365 5.8575 -17.355 5.5275 -18.375 5.1875 C-17.105447 4.53915346 -15.83430294 3.89392185 -14.5625 3.25 C-13.85480469 2.89035156 -13.14710938 2.53070313 -12.41796875 2.16015625 C-8.16349748 0.13460492 -4.67673108 0.02297019 0 0 Z " fill="#37383B" transform="translate(448.375,111.8125)"/>
<path d="M0 0 C6.95023264 0.64653327 13.38177303 2.86027248 20 5 C19.01 5.33 18.02 5.66 17 6 C17 6.66 17 7.32 17 8 C15.35 8.33 13.7 8.66 12 9 C12 7.68 12 6.36 12 5 C11.34 5 10.68 5 10 5 C9.7525 5.804375 9.505 6.60875 9.25 7.4375 C8 10 8 10 5.875 10.8125 C5.25625 10.874375 4.6375 10.93625 4 11 C4.66 9.35 5.32 7.7 6 6 C5.34 5.67 4.68 5.34 4 5 C3.67 5.66 3.34 6.32 3 7 C3 6.34 3 5.68 3 5 C1.35 4.67 -0.3 4.34 -2 4 C-1.34 2.68 -0.68 1.36 0 0 Z " fill="#2B2D30" transform="translate(337,177)"/>
<path d="M0 0 C-0.54299687 3.80097811 -2.07276772 5.57457897 -5 8 C-5.70125 8.165 -6.4025 8.33 -7.125 8.5 C-7.74375 8.665 -8.3625 8.83 -9 9 C-10.10836423 10.88316159 -10.10836423 10.88316159 -11 13 C-12.5 14.75 -12.5 14.75 -14 16 C-14.66 16 -15.32 16 -16 16 C-16.33 15.34 -16.66 14.68 -17 14 C-17.99 14.495 -17.99 14.495 -19 15 C-19.66 14.34 -20.32 13.68 -21 13 C-18.9587948 11.58266464 -16.91705002 10.16611729 -14.875 8.75 C-14.30523437 8.35425781 -13.73546875 7.95851562 -13.1484375 7.55078125 C-12.00241738 6.75638094 -10.85495219 5.96406131 -9.70605469 5.17382812 C-8.56801028 4.39081188 -7.43322886 3.60303206 -6.30175781 2.81054688 C-2.22472994 0 -2.22472994 0 0 0 Z " fill="#2C2F30" transform="translate(220,199)"/>
<path d="M0 0 C-0.33 0.99 -0.66 1.98 -1 3 C-3.31 3.33 -5.62 3.66 -8 4 C-8.33 5.32 -8.66 6.64 -9 8 C-11.66666667 7.33333333 -14.33333333 6.66666667 -17 6 C-17 4.68 -17 3.36 -17 2 C-14.91952703 1.4678559 -12.83547707 0.94968214 -10.75 0.4375 C-9.58984375 0.14746094 -8.4296875 -0.14257812 -7.234375 -0.44140625 C-4.27909017 -0.95179964 -2.75565899 -1.02996165 0 0 Z M-14 7 C-14 10 -14 10 -14 10 Z " fill="#2F3334" transform="translate(286,176)"/>
<path d="M0 0 C4.31226893 2.36752019 8.33715165 4.67013786 12 8 C12 8.66 12 9.32 12 10 C11.34 10 10.68 10 10 10 C10 11.65 10 13.3 10 15 C9.01 13.68 8.02 12.36 7 11 C6.01 11.66 5.02 12.32 4 13 C4 12.34 4 11.68 4 11 C3.34 11 2.68 11 2 11 C1.855625 9.9275 1.71125 8.855 1.5625 7.75 C1.16250558 5.08337051 0.72408076 2.58600271 0 0 Z " fill="#1F2326" transform="translate(497,197)"/>
<path d="M0 0 C1.32 0.99 2.64 1.98 4 3 C3.34 5.31 2.68 7.62 2 10 C1.01 10 0.02 10 -1 10 C-2.4694809 11.76732099 -2.4694809 11.76732099 -3.6875 14 C-4.12449219 14.7425 -4.56148438 15.485 -5.01171875 16.25 C-5.33785156 16.8275 -5.66398437 17.405 -6 18 C-6.99 16.68 -7.98 15.36 -9 14 C-9.99 14.495 -9.99 14.495 -11 15 C-13.69565202 14.83219837 -16.32405554 14.38844355 -19 14 C-19 13.67 -19 13.34 -19 13 C-14.05 12.34 -9.1 11.68 -4 11 C-2.68 7.37 -1.36 3.74 0 0 Z " fill="#474B4E" transform="translate(399,181)"/>
<path d="M0 0 C1.98 0 3.96 0 6 0 C5.814375 1.0725 5.62875 2.145 5.4375 3.25 C5.0695432 6.40391546 4.95534657 8.09818492 6 11 C4.35 11.33 2.7 11.66 1 12 C1 11.34 1 10.68 1 10 C-0.65 10.33 -2.3 10.66 -4 11 C-2.95125002 8.37812506 -2.35068687 7.20628639 0.125 5.75 C0.74375 5.5025 1.3625 5.255 2 5 C1.34 3.35 0.68 1.7 0 0 Z " fill="#272B2E" transform="translate(419,132)"/>
<path d="M0 0 C0.66 0.33 1.32 0.66 2 1 C1.34 2.65 0.68 4.3 0 6 C-0.66 6 -1.32 6 -2 6 C-2 6.66 -2 7.32 -2 8 C-3.65 8.33 -5.3 8.66 -7 9 C-7.061875 9.61875 -7.12375 10.2375 -7.1875 10.875 C-8 13 -8 13 -10.5625 14.25 C-11.366875 14.4975 -12.17125 14.745 -13 15 C-10.51918159 7.76427965 -6.15186314 4.14067711 0 0 Z " fill="#1C2324" transform="translate(187,518)"/>
<path d="M0 0 C2.475 0.99 2.475 0.99 5 2 C4.01 2.33 3.02 2.66 2 3 C2 3.66 2 4.32 2 5 C2.66 5.33 3.32 5.66 4 6 C3.0409375 6.34611328 3.0409375 6.34611328 2.0625 6.69921875 C-0.20500671 7.81750837 -0.20500671 7.81750837 -0.6875 10.20703125 C-0.790625 11.06683594 -0.89375 11.92664063 -1 12.8125 C-1.70321617 17.2299761 -2.76028611 19.76028611 -6 23 C-5.28716318 17.87085227 -3.93243564 13.06624386 -2.4375 8.125 C-2.20353516 7.34125 -1.96957031 6.5575 -1.72851562 5.75 C-1.15556462 3.83236805 -0.57822809 1.91604734 0 0 Z " fill="#494B4E" transform="translate(409,149)"/>
<path d="M0 0 C1.63129887 4.06285757 0.29968777 7.20102184 -0.9375 11.25 C-1.31777344 12.51328125 -1.69804687 13.7765625 -2.08984375 15.078125 C-2.39019531 16.04234375 -2.69054687 17.0065625 -3 18 C-3.99 16.68 -4.98 15.36 -6 14 C-5.34 13.01 -4.68 12.02 -4 11 C-3.60986284 9.0103005 -3.26797351 7.00980131 -3 5 C-3.66 4.67 -4.32 4.34 -5 4 C-3.74458443 1.48916886 -2.49936512 1.12874554 0 0 Z " fill="#2B2F31" transform="translate(472,168)"/>
<path d="M0 0 C1.30710937 -0.01417969 2.61421875 -0.02835937 3.9609375 -0.04296875 C7.36298963 0.1710196 9.59183747 0.70605189 12.625 2.1875 C12.295 3.1775 11.965 4.1675 11.625 5.1875 C11.625 4.5275 11.625 3.8675 11.625 3.1875 C9.315 2.8575 7.005 2.5275 4.625 2.1875 C4.625 3.1775 4.625 4.1675 4.625 5.1875 C3.965 5.1875 3.305 5.1875 2.625 5.1875 C2.625 4.5275 2.625 3.8675 2.625 3.1875 C2.02171875 3.12691406 1.4184375 3.06632812 0.796875 3.00390625 C-0.40195312 2.87822266 -0.40195312 2.87822266 -1.625 2.75 C-2.80835938 2.62818359 -2.80835938 2.62818359 -4.015625 2.50390625 C-6.19864639 2.21115007 -8.2523182 1.76685581 -10.375 1.1875 C-6.77617994 -0.01210669 -3.79362018 0.01863271 0 0 Z " fill="#484949" transform="translate(448.375,111.8125)"/>
<path d="M0 0 C0.33 0.66 0.66 1.32 1 2 C1.99 1.67 2.98 1.34 4 1 C4.33 1.66 4.66 2.32 5 3 C3.35 3.33 1.7 3.66 0 4 C-0.12375 4.94875 -0.2475 5.8975 -0.375 6.875 C-1 10 -1 10 -3 12 C-4.32 12 -5.64 12 -7 12 C-5.44298069 7.32894208 -2.91552627 3.91294315 0 0 Z " fill="#333638" transform="translate(421,125)"/>
<path d="M0 0 C0 3 0 6 0 9 C-3.47295867 10.73647933 -6.16927491 11.10353311 -10 11 C-6.79239749 7.19364503 -3.59253891 3.45436433 0 0 Z " fill="#232627" transform="translate(190,220)"/>
<path d="M0 0 C6.6 0 13.2 0 20 0 C19.01 0.33 18.02 0.66 17 1 C16.67 1.66 16.34 2.32 16 3 C15.34 3 14.68 3 14 3 C12.66216607 3.31478446 11.32796291 3.64587656 10 4 C10 3.01 10 2.02 10 1 C6.7 1 3.4 1 0 1 C0 0.67 0 0.34 0 0 Z M7 2 C7.66 2 8.32 2 9 2 C9.33 2.99 9.66 3.98 10 5 C8.02 5.99 8.02 5.99 6 7 C6.33 5.35 6.66 3.7 7 2 Z " fill="#323636" transform="translate(292,174)"/>
<path d="M0 0 C0.99 0 1.98 0 3 0 C3.19477739 1.62414378 3.38059458 3.24936423 3.5625 4.875 C3.66691406 5.77992188 3.77132813 6.68484375 3.87890625 7.6171875 C4 10 4 10 3 12 C2.34 12 1.68 12 1 12 C0.67 12.66 0.34 13.32 0 14 C-0.76612491 9.6586255 -1.1004202 6.27941187 0 2 C0 1.34 0 0.68 0 0 Z " fill="#1D2326" transform="translate(465,169)"/>
<path d="M0 0 C7.62314474 -0.23576736 14.58569409 0.16282685 22 2 C22 2.33 22 2.66 22 3 C20.35 3 18.7 3 17 3 C16.67 4.65 16.34 6.3 16 8 C15.34 8 14.68 8 14 8 C12.875 4.25 12.875 4.25 14 2 C13.360625 2.185625 12.72125 2.37125 12.0625 2.5625 C11.381875 2.706875 10.70125 2.85125 10 3 C9.67 2.67 9.34 2.34 9 2 C7.48530552 1.76807135 5.96245438 1.58784762 4.4375 1.4375 C3.61121094 1.35371094 2.78492188 1.26992187 1.93359375 1.18359375 C1.29550781 1.12300781 0.65742188 1.06242188 0 1 C0 0.67 0 0.34 0 0 Z " fill="#3E4042" transform="translate(314,174)"/>
<path d="M0 0 C2.99048481 5.98096962 2.94375721 8.60342338 2 15 C2.66 15 3.32 15 4 15 C4.33 15.99 4.66 16.98 5 18 C4.67 18.66 4.34 19.32 4 20 C3.34 20 2.68 20 2 20 C1.67 20.99 1.34 21.98 1 23 C0.67 15.41 0.34 7.82 0 0 Z " fill="#020B0D" transform="translate(469,404)"/>
<path d="M0 0 C-6.28571429 5.42857143 -6.28571429 5.42857143 -10 7 C-10.66 5.35 -11.32 3.7 -12 2 C-10.75579353 1.4654744 -9.50429064 0.94791389 -8.25 0.4375 C-7.55390625 0.14746094 -6.8578125 -0.14257812 -6.140625 -0.44140625 C-3.69987216 -1.07831803 -2.3596345 -0.80248831 0 0 Z " fill="#393B3C" transform="translate(261,182)"/>
<path d="M0 0 C0.66 0.33 1.32 0.66 2 1 C2 1.66 2 2.32 2 3 C2.226875 3.639375 2.45375 4.27875 2.6875 4.9375 C2.790625 5.618125 2.89375 6.29875 3 7 C1.5625 8.75 1.5625 8.75 0 10 C-0.99 9.01 -1.98 8.02 -3 7 C-1.125 1.125 -1.125 1.125 0 0 Z " fill="#071315" transform="translate(532,452)"/>
<path d="M0 0 C0.33 0 0.66 0 1 0 C1.33 2.31 1.66 4.62 2 7 C1.01 7.33 0.02 7.66 -1 8 C-1.33 8.66 -1.66 9.32 -2 10 C-2.99 9.01 -3.98 8.02 -5 7 C-4.19152271 5.83054208 -3.37810888 4.66449539 -2.5625 3.5 C-2.11003906 2.8503125 -1.65757812 2.200625 -1.19140625 1.53125 C-0.79824219 1.0259375 -0.40507812 0.520625 0 0 Z " fill="#2B2F30" transform="translate(173,237)"/>
<path d="M0 0 C2.875 -0.125 2.875 -0.125 6 0 C6.66 0.66 7.32 1.32 8 2 C6.37829621 3.00533667 4.75252763 4.00411907 3.125 5 C1.76761719 5.8353125 1.76761719 5.8353125 0.3828125 6.6875 C-2 8 -2 8 -4 8 C-3.67 7.01 -3.34 6.02 -3 5 C-2.34 4.67 -1.68 4.34 -1 4 C-0.34786708 1.97536745 -0.34786708 1.97536745 0 0 Z " fill="#262B2D" transform="translate(278,229)"/>
<path d="M0 0 C-0.33 0.99 -0.66 1.98 -1 3 C-2.65 3.33 -4.3 3.66 -6 4 C-6.33 4.99 -6.66 5.98 -7 7 C-9.31 6.67 -11.62 6.34 -14 6 C-9.95001278 2.59801074 -5.36373351 0 0 0 Z " fill="#373A3B" transform="translate(249,185)"/>
<path d="M0 0 C1.32 0.99 2.64 1.98 4 3 C3.34 5.31 2.68 7.62 2 10 C1.01 10 0.02 10 -1 10 C-1.99 10.495 -1.99 10.495 -3 11 C-2.01 7.37 -1.02 3.74 0 0 Z " fill="#424344" transform="translate(399,181)"/>
<path d="M0 0 C1.32 0.33 2.64 0.66 4 1 C2.84414715 4.91211733 1.64465038 7.8745041 -1 11 C-2.20898633 6.61742454 -2.2184264 4.02089784 0 0 Z " fill="#22272B" transform="translate(243,271)"/>
<path d="M0 0 C0.33 1.32 0.66 2.64 1 4 C1.99 3.67 2.98 3.34 4 3 C3.67 3.99 3.34 4.98 3 6 C0.69 6.33 -1.62 6.66 -4 7 C-4 4 -4 4 -2 1.8125 C-1.34 1.214375 -0.68 0.61625 0 0 Z " fill="#232629" transform="translate(179,231)"/>
<path d="M0 0 C0.99 0.495 0.99 0.495 2 1 C1.01 1.495 1.01 1.495 0 2 C0 1.34 0 0.68 0 0 Z M-1 1 C-1 1.99 -1 2.98 -1 4 C-2.98 4.99 -2.98 4.99 -5 6 C-5.33 5.34 -5.66 4.68 -6 4 C-6.99 4.495 -6.99 4.495 -8 5 C-8.66 4.34 -9.32 3.68 -10 3 C-6.5647952 0.70986347 -5.014669 0.82157027 -1 1 Z " fill="#25282A" transform="translate(209,209)"/>
<path d="M0 0 C-0.33 0.99 -0.66 1.98 -1 3 C-3.4375 2.625 -3.4375 2.625 -6 2 C-6.33 1.34 -6.66 0.68 -7 0 C-3.86650268 -1.04449911 -3.01031744 -0.93423645 0 0 Z M-8 2 C-7.34 2 -6.68 2 -6 2 C-6 2.66 -6 3.32 -6 4 C-6.66 4 -7.32 4 -8 4 C-8 3.34 -8 2.68 -8 2 Z M-9 4 C-8.67 5.32 -8.34 6.64 -8 8 C-8.66 7.67 -9.32 7.34 -10 7 C-9.67 6.01 -9.34 5.02 -9 4 Z M-12 7 C-10 8 -10 8 -10 8 Z " fill="#383C3D" transform="translate(286,176)"/>
<path d="M0 0 C1.65 0.33 3.3 0.66 5 1 C4.375 2.875 4.375 2.875 3 5 C-0.125 6.25 -0.125 6.25 -3 7 C-1.125 2.25 -1.125 2.25 0 0 Z " fill="#1F2527" transform="translate(153,266)"/>
<path d="M0 0 C-1.6875 2.0625 -1.6875 2.0625 -4 4 C-6.75 3.75 -6.75 3.75 -9 3 C-8.67 2.01 -8.34 1.02 -8 0 C-5.04215769 -1.22393475 -3.00272755 -0.96516243 0 0 Z " fill="#1C2327" transform="translate(265,246)"/>
<path d="M0 0 C0.33 0.99 0.66 1.98 1 3 C-1.82506863 5.9297008 -4.78796065 8.50174717 -8 11 C-8.66 10.67 -9.32 10.34 -10 10 C-6.7 6.7 -3.4 3.4 0 0 Z " fill="#E8ECEE" transform="translate(270,241)"/>
<path d="M0 0 C2.10827055 3.16240582 2.33817465 4.50657469 2.625 8.1875 C2.69976563 9.08855469 2.77453125 9.98960937 2.8515625 10.91796875 C2.90054688 11.60503906 2.94953125 12.29210937 3 13 C1.68 13 0.36 13 -1 13 C-0.67 8.71 -0.34 4.42 0 0 Z " fill="#292F32" transform="translate(540,378)"/>
<path d="M0 0 C2.05078125 0.03255208 4.1015625 0.06510417 6.15234375 0.09765625 C6.15234375 0.75765625 6.15234375 1.41765625 6.15234375 2.09765625 C5.07984375 2.20078125 4.00734375 2.30390625 2.90234375 2.41015625 C-0.70586497 3.07166118 -2.21160648 3.67249046 -4.84765625 6.09765625 C-2.55432956 0.13500685 -2.55432956 0.13500685 0 0 Z " fill="#25292B" transform="translate(316.84765625,174.90234375)"/>
<path d="M0 0 C-0.11409593 1.45922693 -0.24165544 2.91740598 -0.375 4.375 C-0.44460938 5.18710937 -0.51421875 5.99921875 -0.5859375 6.8359375 C-1 9 -1 9 -3 11 C-4.35064935 3.51003542 -4.35064935 3.51003542 -2.625 1 C-1 0 -1 0 0 0 Z " fill="#1D2427" transform="translate(414,369)"/>
<path d="M0 0 C0.66 0.33 1.32 0.66 2 1 C1.8125 2.875 1.8125 2.875 1 5 C-1.5625 6.25 -1.5625 6.25 -4 7 C-4.99 5.68 -5.98 4.36 -7 3 C-4.69631264 1.93347808 -2.35981813 0.93578995 0 0 Z " fill="#232A2C" transform="translate(284,433)"/>
<path d="M0 0 C3.96 0 7.92 0 12 0 C11.67 0.99 11.34 1.98 11 3 C11 2.34 11 1.68 11 1 C10.34 1 9.68 1 9 1 C8.67 1.66 8.34 2.32 8 3 C7.05125 2.814375 6.1025 2.62875 5.125 2.4375 C2.10131207 1.71313368 2.10131207 1.71313368 0 3 C0 2.01 0 1.02 0 0 Z " fill="#212527" transform="translate(290,175)"/>
<path d="M0 0 C2.475 0.99 2.475 0.99 5 2 C4.01 2.33 3.02 2.66 2 3 C2 3.66 2 4.32 2 5 C2.66 5.33 3.32 5.66 4 6 C2.02 6.99 2.02 6.99 0 8 C-0.79953138 4.71303767 -1.09658936 3.28976808 0 0 Z " fill="#3B3E40" transform="translate(409,149)"/>
<path d="M0 0 C1.5 1.375 1.5 1.375 3 3 C3 3.66 3 4.32 3 5 C1.02 5.33 -0.96 5.66 -3 6 C-3 4.35 -3 2.7 -3 1 C-2.01 0.67 -1.02 0.34 0 0 Z " fill="#161C21" transform="translate(527,352)"/>
<path d="M0 0 C1.98983228 3.97966457 2.22400716 4.67675132 1.625 8.75 C1.51414063 9.54921875 1.40328125 10.3484375 1.2890625 11.171875 C1.19367188 11.77515625 1.09828125 12.3784375 1 13 C0.34 12.67 -0.32 12.34 -1 12 C-0.67 8.04 -0.34 4.08 0 0 Z " fill="#0A1113" transform="translate(131,340)"/>
<path d="M0 0 C0.99 0 1.98 0 3 0 C3.33 1.98 3.66 3.96 4 6 C3.01 6 2.02 6 1 6 C0.34 5.34 -0.32 4.68 -1 4 C-1.99 4 -2.98 4 -4 4 C-2.68 3.34 -1.36 2.68 0 2 C0 1.34 0 0.68 0 0 Z " fill="#21272C" transform="translate(265,237)"/>
<path d="M0 0 C0.99 0 1.98 0 3 0 C2.52797514 4.24822374 0.03344482 6.19989709 -3 9 C-2.01 6.03 -1.02 3.06 0 0 Z " fill="#1B2223" transform="translate(457,473)"/>
<path d="M0 0 C0.66 0.33 1.32 0.66 2 1 C1.67 1.66 1.34 2.32 1 3 C0.34 3 -0.32 3 -1 3 C-1 3.99 -1 4.98 -1 6 C-2.9375 5.625 -2.9375 5.625 -5 5 C-5.33 4.34 -5.66 3.68 -6 3 C-4.03533587 1.93224776 -2.03144641 0.93446535 0 0 Z " fill="#313536" transform="translate(233,191)"/>
<path d="M0 0 C0.99 0.99 1.98 1.98 3 3 C2.34 4.32 1.68 5.64 1 7 C-0.32 7 -1.64 7 -3 7 C-1.125 2.25 -1.125 2.25 0 0 Z " fill="#404345" transform="translate(417,130)"/>
<path d="M0 0 C0.66 1.32 1.32 2.64 2 4 C-0.31 5.65 -2.62 7.3 -5 9 C-3.7508258 5.54074837 -2.32472205 2.85306797 0 0 Z " fill="#262C2D" transform="translate(442,501)"/>
<path d="M0 0 C0.12375 0.639375 0.2475 1.27875 0.375 1.9375 C0.684375 2.9584375 0.684375 2.9584375 1 4 C1.66 4.33 2.32 4.66 3 5 C-0.465 6.485 -0.465 6.485 -4 8 C-2.87548273 5.0280615 -1.77706209 2.66559313 0 0 Z " fill="#DFE4E6" transform="translate(362,512)"/>
<path d="M0 0 C2.475 0.495 2.475 0.495 5 1 C4.34 2.32 3.68 3.64 3 5 C2.01 4.67 1.02 4.34 0 4 C0 2.68 0 1.36 0 0 Z " fill="#222327" transform="translate(381,195)"/>
<path d="M0 0 C2 3 2 3 2 7 C1.67 7.66 1.34 8.32 1 9 C0.01 9 -0.98 9 -2 9 C-1.34 6.03 -0.68 3.06 0 0 Z " fill="#3B3E41" transform="translate(402,172)"/>
<path d="M0 0 C3.125 0.375 3.125 0.375 6 1 C6 1.66 6 2.32 6 3 C3.29120665 4.35439668 0.99066732 4.06501451 -2 4 C-2 2 -2 2 0 0 Z " fill="#040C0F" transform="translate(256,586)"/>
<path d="M0 0 C2.64 0 5.28 0 8 0 C5.37801226 2.15377564 3.35595828 3.40072174 0 4 C0 2.68 0 1.36 0 0 Z " fill="#1A2224" transform="translate(281,579)"/>
<path d="M0 0 C0.598125 0.33 1.19625 0.66 1.8125 1 C4.05386471 2.20787988 4.05386471 2.20787988 7 2 C6.01 3.485 6.01 3.485 5 5 C3.35 4.67 1.7 4.34 0 4 C0 2.68 0 1.36 0 0 Z " fill="#090F15" transform="translate(305,563)"/>
<path d="M0 0 C0.33 0.66 0.66 1.32 1 2 C-1.39509338 4.89932357 -3.31245243 5.50168276 -7 6 C-2.25 1.125 -2.25 1.125 0 0 Z " fill="#060E10" transform="translate(282,523)"/>
<path d="M0 0 C2.00720923 0.28674418 4.0085944 0.61866701 6 1 C4.68 1.99 3.36 2.98 2 4 C1.01 3.01 0.02 2.02 -1 1 C-0.67 0.67 -0.34 0.34 0 0 Z M0 4 C1.485 4.99 1.485 4.99 3 6 C2.01 6 1.02 6 0 6 C0 5.34 0 4.68 0 4 Z " fill="#272A2C" transform="translate(480,191)"/>
<path d="M0 0 C-1.39332574 3.36720387 -2.9789286 4.9859524 -6 7 C-6.33 6.01 -6.66 5.02 -7 4 C-2.25 0 -2.25 0 0 0 Z " fill="#2D3136" transform="translate(505,304)"/>
<path d="M0 0 C2.56687367 3.8503105 1.83288724 5.58569763 1 10 C0.34 9.67 -0.32 9.34 -1 9 C-0.67 6.03 -0.34 3.06 0 0 Z " fill="#272B2F" transform="translate(338,299)"/>
<path d="M0 0 C0.66 0 1.32 0 2 0 C1.67 1.32 1.34 2.64 1 4 C-1.31 4.33 -3.62 4.66 -6 5 C-5.195625 4.360625 -4.39125 3.72125 -3.5625 3.0625 C-1.7249496 1.59396498 -1.7249496 1.59396498 0 0 Z " fill="#2A2E30" transform="translate(451,289)"/>
<path d="M0 0 C-0.33 1.32 -0.66 2.64 -1 4 C-4 4 -4 4 -7 3 C-2.25 0 -2.25 0 0 0 Z " fill="#3A3D3F" transform="translate(227,195)"/>
<path d="M0 0 C3.16115776 1.36983503 3.9927092 1.9890638 6 5 C4.02 5 2.04 5 0 5 C0 3.35 0 1.7 0 0 Z " fill="#202428" transform="translate(227,195)"/>
<path d="M0 0 C1.98 0.495 1.98 0.495 4 1 C4 1.66 4 2.32 4 3 C2.35 3.66 0.7 4.32 -1 5 C-0.67 3.35 -0.34 1.7 0 0 Z " fill="#071215" transform="translate(226,539)"/>
<path d="M0 0 C1 2 1 2 0.375 4 C-1.39265071 6.57112831 -3.07589059 7.07659703 -6 8 C-4.02 5.36 -2.04 2.72 0 0 Z " fill="#D2D8DB" transform="translate(516,490)"/>
<path d="M0 0 C0.99 0 1.98 0 3 0 C3.125 2.875 3.125 2.875 3 6 C2.34 6.66 1.68 7.32 1 8 C0.67 5.36 0.34 2.72 0 0 Z " fill="#171C1F" transform="translate(466,391)"/>
<path d="M0 0 C0.433125 0.9590625 0.433125 0.9590625 0.875 1.9375 C1.82823451 4.15206079 1.82823451 4.15206079 4 5 C2.02 5.66 0.04 6.32 -2 7 C-1.34 4.69 -0.68 2.38 0 0 Z " fill="#2E3336" transform="translate(144,283)"/>
<path d="M0 0 C0.66 1.32 1.32 2.64 2 4 C1.01 3.01 0.02 2.02 -1 1 C-0.67 0.67 -0.34 0.34 0 0 Z M-5 1 C-2.525 1.99 -2.525 1.99 0 3 C0 3.66 0 4.32 0 5 C-2.475 4.01 -2.475 4.01 -5 3 C-5 2.34 -5 1.68 -5 1 Z " fill="#1B2024" transform="translate(469,245)"/>
<path d="M0 0 C1.98 0.99 3.96 1.98 6 3 C5.67 3.99 5.34 4.98 5 6 C4.34 6 3.68 6 3 6 C3 5.34 3 4.68 3 4 C2.01 3.67 1.02 3.34 0 3 C0 2.01 0 1.02 0 0 Z " fill="#2E3236" transform="translate(497,197)"/>
<path d="M0 0 C3.465 1.485 3.465 1.485 7 3 C6.34 3.66 5.68 4.32 5 5 C2.525 4.01 2.525 4.01 0 3 C0 2.01 0 1.02 0 0 Z " fill="#323333" transform="translate(369,188)"/>
<path d="M0 0 C0.33 0.99 0.66 1.98 1 3 C0.01 4.485 0.01 4.485 -1 6 C-1.66 6 -2.32 6 -3 6 C-3 4.35 -3 2.7 -3 1 C-2.01 0.67 -1.02 0.34 0 0 Z " fill="#282C2F" transform="translate(477,152)"/>
</svg>
