<svg id="svg" version="1.1" xmlns="http://www.w3.org/2000/svg" xmlns:xlink="http://www.w3.org/1999/xlink" width="400" height="400.5908419497784" viewBox="0, 0, 400,400.5908419497784"><g id="svgg"><path id="path0" d="M258.067 67.320 C 248.718 70.975,246.000 75.296,238.952 97.713 C 235.935 107.307,233.787 113.203,233.188 113.539 C 230.659 114.954,224.817 114.826,222.404 113.302 C 178.216 85.408,108.724 113.094,85.196 167.966 C 58.130 231.090,99.486 297.342,162.186 291.303 C 167.810 290.761,170.491 290.294,178.393 288.482 L 179.830 288.152 177.868 291.639 C 163.602 316.993,140.682 328.026,131.561 313.929 C 125.785 305.000,118.598 302.420,110.603 306.405 C 95.645 313.859,99.418 336.953,116.987 345.477 C 150.392 361.684,196.615 337.511,221.002 291.081 C 225.161 283.162,225.615 282.929,231.507 285.671 C 251.999 295.211,270.780 271.863,254.707 256.829 C 250.812 253.185,247.334 251.994,240.590 251.994 C 235.978 251.994,235.138 251.852,235.367 251.108 C 236.509 247.393,243.254 224.896,245.375 217.725 L 247.997 208.863 251.807 208.947 C 266.287 209.267,276.666 225.251,276.690 247.267 C 276.716 271.554,266.753 293.230,245.709 314.676 C 237.695 322.843,237.175 324.119,240.503 327.448 C 246.439 333.383,280.601 315.815,297.796 297.984 C 331.241 263.303,329.638 211.656,294.508 192.061 C 291.923 190.619,289.711 189.369,289.592 189.284 C 289.473 189.199,292.028 186.523,295.270 183.339 C 323.339 155.764,315.661 117.543,280.969 112.150 C 277.963 111.683,276.560 111.219,276.740 110.751 C 279.622 103.241,283.257 88.319,283.281 83.900 C 283.352 71.084,270.334 62.525,258.067 67.320 M186.959 136.733 C 202.147 144.164,204.189 164.795,193.830 206.141 C 184.379 243.860,174.131 258.493,157.164 258.493 C 134.176 258.493,125.423 228.088,136.461 186.573 C 146.427 149.090,168.231 127.570,186.959 136.733 M272.990 144.669 C 278.137 150.899,276.430 161.248,269.025 168.712 C 265.611 172.153,258.610 176.095,258.324 174.737 C 258.175 174.031,261.873 160.627,266.219 146.119 L 267.669 141.279 269.439 141.896 C 270.413 142.235,272.011 143.483,272.990 144.669 " stroke="none" fill="#000000" fill-rule="evenodd"></path></g></svg>