<?xml version="1.0" encoding="UTF-8"?>
<svg version="1.1" xmlns="http://www.w3.org/2000/svg" width="406" height="405">
<path d="M0 0 C133.98 0 267.96 0 406 0 C406 133.65 406 267.3 406 405 C272.02 405 138.04 405 0 405 C0 271.35 0 137.7 0 0 Z " fill="#FBF8F3" transform="translate(0,0)"/>
<path d="M0 0 C5.17832327 3.02901921 9.82908015 7.73237905 12.5234375 13.12109375 C13.93683229 23.98097527 10.67839864 33.03023724 7.16845703 43.13671875 C6.42054448 45.43763973 5.90390325 47.73234677 5.5234375 50.12109375 C6.17828125 50.19585937 6.833125 50.270625 7.5078125 50.34765625 C18.41956514 51.91968841 29.32113807 56.48728139 36.5234375 65.12109375 C44.43413651 76.78434904 47.51990997 87.48927653 44.875 101.57421875 C40.87984545 115.71091945 32.41998685 129.60182536 19.5234375 137.12109375 C19.1934375 137.78109375 18.8634375 138.44109375 18.5234375 139.12109375 C19.26078125 139.23324219 19.998125 139.34539062 20.7578125 139.4609375 C30.95769734 141.89565577 40.33112385 151.83369632 45.7734375 160.30859375 C55.79300705 177.46785658 58.63301843 196.78964985 54.3359375 216.30859375 C53.77390043 218.25873168 53.16911422 220.19702899 52.5234375 222.12109375 C51.99556641 223.83425781 51.99556641 223.83425781 51.45703125 225.58203125 C46.54306172 240.53477023 37.78854324 254.97994535 25.5234375 265.12109375 C23.86974393 265.81931992 22.20616736 266.4960798 20.5234375 267.12109375 C20.21784912 267.74161621 19.91226074 268.36213867 19.59741211 269.00146484 C18.39212068 271.38026461 17.3055128 272.31178886 15.15234375 273.84765625 C14.16717773 274.55921875 14.16717773 274.55921875 13.16210938 275.28515625 C12.47697266 275.76726562 11.79183594 276.249375 11.0859375 276.74609375 C10.40466797 277.2359375 9.72339844 277.72578125 9.02148438 278.23046875 C0.80518912 284.12109375 0.80518912 284.12109375 -3.4765625 284.12109375 C-3.4765625 284.78109375 -3.4765625 285.44109375 -3.4765625 286.12109375 C-29.6136891 297.935603 -29.6136891 297.935603 -37.4765625 296.12109375 C-39.4765625 294.12109375 -39.4765625 294.12109375 -40.0390625 290.99609375 C-38.94744437 283.47605777 -32.59150603 279.10836879 -26.9765625 274.49609375 C-24.95376116 272.64185918 -23.77357673 270.52057007 -22.4765625 268.12109375 C-21.47800409 267.11965423 -20.47789234 266.11976214 -19.4765625 265.12109375 C-10.58570923 252.26666079 -3.17317305 238.40836707 0.5234375 223.12109375 C0.69045166 222.48067139 0.85746582 221.84024902 1.02954102 221.18041992 C2.42500097 215.50480419 2.87552596 210.14393219 2.8359375 204.30859375 C2.82747803 202.99592529 2.82747803 202.99592529 2.81884766 201.65673828 C2.59432809 189.63271518 -0.02565515 179.07024191 -8.3984375 170.05078125 C-14.49128174 164.40663485 -20.12987808 161.97279624 -28.4765625 161.12109375 C-28.58250732 161.79043945 -28.68845215 162.45978516 -28.79760742 163.14941406 C-29.94220143 169.94000076 -31.62586993 176.33988236 -33.7890625 182.87109375 C-34.09593994 183.8161377 -34.40281738 184.76118164 -34.71899414 185.73486328 C-35.63011057 188.53300414 -36.55146055 191.32754931 -37.4765625 194.12109375 C-37.74500977 194.93481445 -38.01345703 195.74853516 -38.29003906 196.58691406 C-39.67127607 200.76983439 -41.06601289 204.94794697 -42.4765625 209.12109375 C-40.88328125 209.01667969 -40.88328125 209.01667969 -39.2578125 208.91015625 C-26.40496118 208.31764892 -26.40496118 208.31764892 -21.7265625 211.74609375 C-17.44388011 215.74515479 -13.88761492 220.32728208 -13.23828125 226.3203125 C-13.03056273 233.28434913 -14.12564746 238.5252032 -18.97265625 243.7265625 C-21.58181393 246.04942856 -22.9160043 247.12109375 -26.4765625 247.12109375 C-26.4765625 247.78109375 -26.4765625 248.44109375 -26.4765625 249.12109375 C-29.9990379 250.20028352 -33.30416051 250.2875364 -36.9765625 250.30859375 C-38.100625 250.32277344 -39.2246875 250.33695313 -40.3828125 250.3515625 C-43.4765625 250.12109375 -43.4765625 250.12109375 -45.3828125 249.109375 C-48.69902054 247.54407531 -51.84012413 247.99987914 -55.4765625 248.12109375 C-55.72712402 248.62334473 -55.97768555 249.1255957 -56.23583984 249.64306641 C-63.62210804 264.33855782 -71.46960475 279.52490834 -84.4765625 290.12109375 C-85.1365625 290.12109375 -85.7965625 290.12109375 -86.4765625 290.12109375 C-86.85748047 290.99701172 -86.85748047 290.99701172 -87.24609375 291.890625 C-95.33804339 306.55888926 -118.1785259 314.50393027 -133.35864258 318.95556641 C-148.03179013 322.93527346 -164.18066115 322.97736582 -177.7265625 315.43359375 C-185.36313768 310.45694925 -192.41372174 303.91258113 -195.4765625 295.12109375 C-196.49875382 288.24095983 -195.62193035 282.29949488 -192.4765625 276.12109375 C-190.4140625 274.87109375 -190.4140625 274.87109375 -188.4765625 274.12109375 C-188.1465625 273.46109375 -187.8165625 272.80109375 -187.4765625 272.12109375 C-186.17104795 269.51006465 -185.18419378 269.16389769 -182.4765625 268.12109375 C-179.6015625 267.85546875 -179.6015625 267.85546875 -176.4765625 267.87109375 C-175.4453125 267.8659375 -174.4140625 267.86078125 -173.3515625 267.85546875 C-170.53058972 268.1161021 -168.87510532 268.66813031 -166.4765625 270.12109375 C-166.4765625 270.78109375 -166.4765625 271.44109375 -166.4765625 272.12109375 C-165.8784375 272.19457031 -165.2803125 272.26804687 -164.6640625 272.34375 C-161.6936677 273.39930101 -161.05697208 274.87447422 -159.4765625 277.55859375 C-157.4959415 280.91165593 -156.20814611 282.81092377 -152.4765625 284.12109375 C-142.24390871 285.87141611 -134.52157633 281.58335815 -126.2890625 275.93359375 C-118.83904437 268.48357562 -112.89433337 260.12748456 -107.4765625 251.12109375 C-108.25 251.32605469 -109.0234375 251.53101563 -109.8203125 251.7421875 C-110.861875 252.01160156 -111.9034375 252.28101563 -112.9765625 252.55859375 C-113.9975 252.82542969 -115.0184375 253.09226562 -116.0703125 253.3671875 C-129.50644391 256.34101016 -143.34995993 256.30107334 -156.4765625 252.12109375 C-157.83007812 251.77304687 -157.83007812 251.77304687 -159.2109375 251.41796875 C-175.31560616 246.88018918 -189.87110885 236.8699654 -200.4765625 224.12109375 C-201.14042969 223.33347656 -201.80429688 222.54585937 -202.48828125 221.734375 C-212.80378682 209.21822824 -220.10470487 195.68566103 -220.4765625 179.12109375 C-221.1365625 179.12109375 -221.7965625 179.12109375 -222.4765625 179.12109375 C-224.37184459 162.57356624 -224.48223768 147.07668339 -219.4765625 131.12109375 C-219.1177348 129.80855704 -218.76361694 128.49472424 -218.4140625 127.1796875 C-213.2240169 108.32252182 -202.63046691 90.65833428 -188.4765625 77.12109375 C-187.8165625 77.12109375 -187.1565625 77.12109375 -186.4765625 77.12109375 C-186.2703125 76.58484375 -186.0640625 76.04859375 -185.8515625 75.49609375 C-183.94405824 72.20131366 -181.42836866 69.52745747 -178.4765625 67.12109375 C-177.8165625 67.12109375 -177.1565625 67.12109375 -176.4765625 67.12109375 C-176.4765625 66.46109375 -176.4765625 65.80109375 -176.4765625 65.12109375 C-174.0015625 64.62609375 -174.0015625 64.62609375 -171.4765625 64.12109375 C-170.9815625 62.63609375 -170.9815625 62.63609375 -170.4765625 61.12109375 C-165.21941964 57.12109375 -165.21941964 57.12109375 -161.4765625 57.12109375 C-161.4765625 56.46109375 -161.4765625 55.80109375 -161.4765625 55.12109375 C-134.31074809 42.03444394 -104.48659113 33.92166415 -74.6484375 43.546875 C-59.64664838 48.95100787 -59.64664838 48.95100787 -55.4765625 53.12109375 C-53.79047284 53.19314886 -52.10155591 53.20495443 -50.4140625 53.18359375 C-47.9453125 53.15234375 -47.9453125 53.15234375 -45.4765625 53.12109375 C-45.29988037 52.46842529 -45.12319824 51.81575684 -44.94116211 51.14331055 C-43.01752405 44.06073956 -41.05705929 36.98987079 -39.0390625 29.93359375 C-38.75224609 28.90556641 -38.46542969 27.87753906 -38.16992188 26.81835938 C-35.85747993 18.7685893 -33.66990591 11.37440053 -27.1015625 5.80859375 C-26.37195313 5.17308594 -25.64234375 4.53757812 -24.890625 3.8828125 C-17.50835702 -1.50457077 -8.8034209 -3.12424243 0 0 Z " fill="#060606" transform="translate(280.4765625,39.87890625)"/>
<path d="M0 0 C6.44026897 4.89368108 10.81811639 11.54507872 12.1875 19.5625 C12.52731091 24.06471104 12.56839187 28.54873971 12.5625 33.0625 C12.56088867 34.34463379 12.55927734 35.62676758 12.55761719 36.94775391 C12.40762567 48.79855468 10.81643654 60.02804093 8.1875 71.5625 C8.03796875 72.24344727 7.8884375 72.92439453 7.734375 73.62597656 C5.84423185 82.05724012 3.03758085 90.20710235 0.25 98.375 C-0.07387695 99.33019531 -0.39775391 100.28539062 -0.73144531 101.26953125 C-5.82336896 115.83233175 -12.17842844 127.55367475 -25.8125 135.5625 C-32.12140256 137.66546752 -40.30620141 137.85455377 -46.58984375 135.5390625 C-56.86020306 129.18372904 -61.40353249 117.49702505 -64.4296875 106.2734375 C-66.35390326 92.64684836 -64.78871164 79.14167331 -61.40673828 65.90966797 C-60.80728501 63.54190145 -60.25808459 61.16638622 -59.71484375 58.78515625 C-54.58976165 37.05339068 -45.10437888 14.23821309 -25.984375 1.328125 C-18.2747824 -3.29763056 -7.93332678 -4.85933045 0 0 Z " fill="#FAF7F2" transform="translate(184.8125,119.4375)"/>
<path d="M0 0 C3.34170288 0.9282508 4.93461942 1.92931829 7.3125 4.5 C10.13270128 10.34930637 9.8526004 16.12969881 7.8125 22.25 C5.13537178 28.45493271 0.89237996 32.75317839 -5 36 C-8.375 36.75 -8.375 36.75 -11 37 C-9.39511555 29.20244621 -7.21232781 21.62616693 -4.9375 14 C-4.57333984 12.76121094 -4.20917969 11.52242187 -3.83398438 10.24609375 C-3.31094727 8.48458984 -3.31094727 8.48458984 -2.77734375 6.6875 C-2.46015381 5.61886719 -2.14296387 4.55023438 -1.81616211 3.44921875 C-1 1 -1 1 0 0 Z " fill="#F3F0EB" transform="translate(274,125)"/>
</svg>
